<?xml version="1.0" encoding="utf-8"?>
<svg version="1.1" id="Layer_1" xmlns="http://www.w3.org/2000/svg" xmlns:xlink="http://www.w3.org/1999/xlink" x="0px" y="0px"
	 viewBox="0 0 1651.963 1652.366" enable-background="new 0 0 1651.963 1652.366" xml:space="preserve">
<g>
	<g id="g16809" transform="matrix(0.17290942,0,0,0.17290942,-2255.2887,619.58902)">
		<path id="rect16749" fill="#1A1A1A" fill-opacity="0.9529" d="M17537.975-2708.267
			c152.865,71.413,360.168,164.776,452.514,303.202c125.393-203.208,133.33-220.664,169.402-385.426
			c69.545,287.036-12.125,589.939-139.234,904.465h-102.107C18052.854-2081.111,17871.236-2420.123,17537.975-2708.267z"/>
		
			<ellipse id="path16752" transform="matrix(0.7346 -0.6785 0.6785 0.7346 6561.9946 11434.4092)" fill="#1A1A1A" fill-opacity="0.9529" cx="17897.273" cy="-2670.805" rx="96.992" ry="109.286"/>
		<path id="path16770" fill="#1A1A1A" fill-opacity="0.9529" d="M17802.396-3222.841c-92.197,91.176-31.125,139.231,23.477,189.106
			c-9.365-45.078-22.346-91.322-20.594-127.477c16.18,32.904,19.836,79.9,25.463,127.174
			C17876.291-3102.431,17881.988-3166.87,17802.396-3222.841z"/>
		<path id="path16775" fill="#1A1A1A" fill-opacity="0.9529" d="M17477.885-3374.06c-100.191,228.438,43.104,271.05,176.121,321.505
			c-48.723-73.964-104.736-147.449-127.25-213.344c52.271,47.362,92.148,128.806,135.742,209.35
			C17695.434-3211.159,17659.912-3330.429,17477.885-3374.06z"/>
		<path id="path16785" fill="#1A1A1A" fill-opacity="0.9529" d="M18222.727-3124.159c-129.664-0.722-120.461,76.442-117.117,150.319
			c25.252-38.497,48.771-80.375,75.578-104.702c-11.828,34.707-42.473,70.524-71.922,107.931
			C18189.834-2986.765,18239.428-3028.302,18222.727-3124.159z"/>
		<path id="path16787" fill="#1A1A1A" fill-opacity="0.9529" d="M17435.4-2995.402c-0.723,129.664,76.441,120.46,150.318,117.118
			c-38.498-25.252-80.375-48.773-104.701-75.578c34.705,11.827,70.523,42.472,107.93,71.921
			C17572.793-2962.51,17531.256-3012.104,17435.4-2995.402z"/>
		<path id="path16789" fill="#1A1A1A" fill-opacity="0.9529" d="M17379.252-2434.083c111.93,65.457,142.541-5.97,176.586-71.621
			c-41.117,20.714-82.426,45.221-117.803,52.885c27.596-24.143,72.043-39.84,116.25-57.51
			C17476.434-2536.623,17412.715-2525.449,17379.252-2434.083z"/>
		<path id="path16791" fill="#1A1A1A" fill-opacity="0.9529" d="M17693.926-2138.457c125.434-32.862,96.572-105.015,74.223-175.509
			c-14.428,43.721-26.309,90.26-45.904,120.695c2.441-36.585,22.771-79.114,41.537-122.867
			C17690.139-2279.682,17652.984-2226.725,17693.926-2138.457z"/>
		<path id="path16793" fill="#1A1A1A" fill-opacity="0.9529" d="M18454.76-2609.968c-64.205-112.653-126.43-66.101-188.738-26.268
			c45.965,2.62,93.994,2.051,128.463,13.101c-35.971,7.111-82.311-1.52-129.432-8.32
			C18319.328-2569.757,18380.096-2547.576,18454.76-2609.968z"/>
		<path id="path16797" fill="#1A1A1A" fill-opacity="0.9529" d="M18119.088-3431.899
			c-235.564,82.046-169.271,216.04-115.719,347.841c21.037-86.035,36.762-177.087,69.725-238.426
			c0.869,70.531-31.67,155.174-61.02,241.93C18147.773-3161.638,18210.992-3268.832,18119.088-3431.899z"/>
		<path id="path16799" fill="#1A1A1A" fill-opacity="0.9529" d="M18610.969-2970.913c-215.42-125.762-274.207,11.69-339.604,138.034
			c79.07-39.906,158.502-87.112,226.547-101.907c-53.053,46.485-138.537,76.745-223.555,110.801
			C18424.162-2773.513,18546.723-2795.101,18610.969-2970.913z"/>
		<path id="path16801" fill="#1A1A1A" fill-opacity="0.9529" d="M18500.51-2173.101c1.203-249.441-147.227-231.625-289.342-225.089
			c74.094,48.523,154.691,93.711,201.527,145.241c-66.783-22.701-135.732-81.603-207.734-138.203
			C18236.152-2236.181,18316.131-2140.834,18500.51-2173.101z"/>
		<path id="path16805" fill="#1A1A1A" fill-opacity="0.9529" d="M17370.248-2031.971c249.441,1.203,231.625-147.228,225.09-289.343
			c-48.523,74.095-93.711,154.692-145.242,201.527c22.701-66.783,81.604-135.731,138.203-207.734
			C17433.328-2296.328,17337.98-2216.352,17370.248-2031.971z"/>
		<path id="path16807" fill="#1A1A1A" fill-opacity="0.9529" d="M17067.002-2778.126c123.68,216.623,243.316,126.979,363.123,50.261
			c-88.43-4.975-180.822-3.81-247.148-25.019c69.188-13.732,158.348,2.805,249.004,15.82
			C17327.482-2855.676,17210.547-2898.26,17067.002-2778.126z"/>
	</g>
	<g id="g16809_1_" transform="matrix(0.17290942,0,0,0.17290942,-2255.2887,619.58902)">
		<path id="rect16749_1_" fill="#1A1A1A" fill-opacity="0.9529" d="M16280.104-2397.027
			c167.788,17.754,394.19,38.54,526.573,139.359c52.402-232.962,54.225-252.05,34.689-419.579
			c159.207,248.756,180.602,561.746,162.816,900.519l-96.543,33.242C16971.113-1971.668,16689.02-2233.082,16280.104-2397.027z"/>
		
			<ellipse id="path16752_1_" transform="matrix(0.4737 -0.8807 0.8807 0.4737 10936.5576 13343.2148)" fill="#1A1A1A" fill-opacity="0.9529" cx="16632.025" cy="-2478.583" rx="96.992" ry="109.286"/>
		<path id="path16770_1_" fill="#1A1A1A" fill-opacity="0.9529" d="M16362.592-2969.655
			c-57.49,116.224,15.898,141.779,83.764,171.16c-23.531-39.573-50.859-79.071-60.973-113.827
			c26.008,25.844,44.768,69.089,65.479,111.956C16471.66-2879.862,16456.068-2942.645,16362.592-2969.655z"/>
		<path id="path16775_1_" fill="#1A1A1A" fill-opacity="0.9529" d="M16006.527-3006.984
			c-20.36,248.611,129.001,242.25,271.198,246.649c-70.148-54.072-147.036-105.316-189.775-160.293
			c64.843,27.764,129.062,91.788,196.504,153.752C16265.259-2923.785,16192.842-3024.993,16006.527-3006.984z"/>
		<path id="path16785_1_" fill="#1A1A1A" fill-opacity="0.9529" d="M16792.148-3013.195
			c-122.834,41.531-89.01,111.495-61.797,180.259c11.342-44.621,19.947-91.875,37.373-123.603
			c0.115,36.666-17.199,80.509-32.865,125.465C16805.779-2872.578,16839.148-2927.997,16792.148-3013.195z"/>
		<path id="path16787_1_" fill="#1A1A1A" fill-opacity="0.9529" d="M16089.636-2635.124
			c41.531,122.835,111.495,89.011,180.259,61.798c-44.621-11.343-91.875-19.948-123.603-37.373
			c36.666-0.117,80.509,17.198,125.466,32.864C16230.253-2648.755,16174.833-2682.124,16089.636-2635.124z"/>
		<path id="path16789_1_" fill="#1A1A1A" fill-opacity="0.9529" d="M16219.294-2086.106
			c127.144,25.45,132.833-52.052,143.648-125.21c-32.135,32.971-63.214,69.593-94.167,88.357
			c18.231-31.812,55.147-61.124,91.193-92.224C16277.798-2214.7,16221.189-2183.389,16219.294-2086.106z"/>
		<path id="path16791_1_" fill="#1A1A1A" fill-opacity="0.9529" d="M16613.072-1909.034
			c107.898-71.908,57.119-130.734,13.037-190.111c0.592,46.036,4.512,93.908-4.107,129.064
			c-9.604-35.386-4.227-82.217-0.729-129.696C16563.512-2041.332,16545.623-1979.164,16613.072-1909.034z"/>
		<path id="path16793_1_" fill="#1A1A1A" fill-opacity="0.9529" d="M17178.945-2602.561
			c-97.385-85.612-141.063-21.338-187.008,36.611c44.314-12.487,89.539-28.663,125.729-29.436
			c-31.695,18.434-78.32,25.361-125.088,34.272C17063.982-2520.448,17128.662-2519.259,17178.945-2602.561z"/>
		<path id="path16797_1_" fill="#1A1A1A" fill-opacity="0.9529" d="M16593.967-3270.427
			c-196.02,154.268-89.715,259.379,3.832,366.564c-8.119-88.197-22.895-179.408-11.697-248.136
			c23.783,66.406,20.574,157.031,21.068,248.615C16709.078-3024.23,16733.953-3146.166,16593.967-3270.427z"/>
		<path id="path16799_1_" fill="#1A1A1A" fill-opacity="0.9529" d="M17209.131-2994.697
			c-244.627-48.777-255.461,100.326-276.162,241.078c61.77-63.475,121.506-133.969,181.025-170.112
			c-35.025,61.225-106.002,117.667-175.301,177.547C17096.77-2747.233,17205.625-2807.548,17209.131-2994.697z"/>
		<path id="path16801_1_" fill="#1A1A1A" fill-opacity="0.9529" d="M17364.434-2204.39
			c-80.072-236.242-214.617-171.073-346.861-118.625c85.855,21.757,176.773,38.242,237.834,71.718
			c-70.537,0.278-154.904-32.968-241.41-63.042C17093.941-2177.966,17200.604-2113.852,17364.434-2204.39z"/>
		<path id="path16805_1_" fill="#1A1A1A" fill-opacity="0.9529" d="M16341.696-1702.971
			c236.243-80.072,171.073-214.616,118.624-346.861c-21.756,85.856-38.242,176.773-71.717,237.834
			c-0.277-70.536,32.969-154.904,63.043-241.411C16315.272-1973.462,16251.159-1866.801,16341.696-1702.971z"/>
		<path id="path16807_1_" fill="#1A1A1A" fill-opacity="0.9529" d="M15812.048-2309.747
			c187.466,164.556,271.399,40.846,359.702-70.698c-85.231,24.086-172.211,55.268-241.828,56.808
			c60.946-35.509,150.634-48.901,240.588-66.109C16033.088-2467.876,15908.66-2470.07,15812.048-2309.747z"/>
	</g>
	<g id="g16809_2_" transform="matrix(0.17290942,0,0,0.17290942,-2255.2887,619.58902)">
		<path id="rect16749_3_" fill="#1A1A1A" fill-opacity="0.9529" d="M15192.094-1693.222
			c164.427-37.839,385.263-91.896,543.255-39.669c-26.296-237.331-30.788-255.971-103.8-408.014
			c231.52,183.371,353.647,472.343,447.125,798.45l-80.46,62.863C15983.94-1516.008,15632.106-1671.338,15192.094-1693.222z"/>
		
			<ellipse id="path16752_3_" transform="matrix(0.1612 -0.9869 0.9869 0.1612 14860.9824 13714.5693)" fill="#1A1A1A" fill-opacity="0.9529" cx="15498.29" cy="-1884.909" rx="96.992" ry="109.286"/>
		<path id="path16770_3_" fill="#1A1A1A" fill-opacity="0.9529" d="M15083.658-2261.507
			c-16.519,128.609,61.191,128.878,134.926,134.564c-35.133-29.756-73.833-58.204-94.711-87.774
			c33.007,15.968,64.822,50.75,98.361,84.539C15216.02-2212.116,15180.836-2266.402,15083.658-2261.507z"/>
		<path id="path16775_3_" fill="#1A1A1A" fill-opacity="0.9529" d="M14734.84-2180.88
			c61.689,241.695,200.842,187.053,336.725,144.918c-83.932-28.287-173.313-51.708-231.623-89.775
			c70.349,5.141,151.914,44.769,235.855,81.4C15006.562-2186.448,14905.141-2258.565,14734.84-2180.88z"/>
		<path id="path16785_3_" fill="#1A1A1A" fill-opacity="0.9529" d="M15475.638-2442.525c-102.621,79.26-47.861,134.4,0.256,190.558
			c-3.803-45.883-11.051-93.364-4.905-129.036c12.048,34.63,9.951,81.722,9.774,129.329
			C15534.307-2314.007,15547.814-2377.271,15475.638-2442.525z"/>
		<path id="path16787_3_" fill="#1A1A1A" fill-opacity="0.9529" d="M14934.486-1856.337c79.26,102.621,134.399,47.862,190.558-0.256
			c-45.883,3.802-93.364,11.051-129.036,4.905c34.63-12.048,81.722-9.951,129.329-9.774
			C15063.004-1915.005,14999.74-1928.513,14934.486-1856.337z"/>
		<path id="path16789_3_" fill="#1A1A1A" fill-opacity="0.9529" d="M15235.823-1379.443
			c128.502-17.33,108.649-92.463,95.057-165.156c-19.648,41.637-37.111,86.381-60.27,114.201
			c6.881-36.015,32.243-75.749,56.2-116.89C15249.273-1520.077,15205.943-1472.043,15235.823-1379.443z"/>
		<path id="path16791_3_" fill="#1A1A1A" fill-opacity="0.9529" d="M15665.796-1340.219
			c78.61-103.119,11.446-142.208-49.566-183.999c15.548,43.335,34.839,87.323,38.135,123.37
			c-20.601-30.332-30.763-76.362-42.914-122.393C15575.864-1449.174,15579.19-1384.569,15665.796-1340.219z"/>
		<path id="path16793_3_" fill="#1A1A1A" fill-opacity="0.9529" d="M15975.05-2180.192c-119.951-49.242-140.324,25.75-164.9,95.5
			c37.835-26.234,75.331-56.252,109.297-68.766c-23.967,27.749-65.798,49.479-107.116,73.129
			C15893.084-2065.125,15954.627-2085.058,15975.05-2180.192z"/>
		<path id="path16797_3_" fill="#1A1A1A" fill-opacity="0.9529" d="M15204.506-2621.221
			c-135.114,209.681-0.381,274.456,122.965,345.346c-36.391-80.749-80.057-162.179-91.846-230.809
			c44.107,55.045,70.578,141.777,100.862,228.211C15393.499-2425.914,15377.321-2549.305,15204.506-2621.221z"/>
		<path id="path16799_3_" fill="#1A1A1A" fill-opacity="0.9529" d="M15875.924-2560.792
			c-247.18,33.524-208.881,178.031-182.629,317.854c37.739-80.127,71.27-166.229,115.78-219.78
			c-13.186,69.293-61.919,145.767-107.946,224.946C15850.25-2290.229,15933.538-2382.697,15875.924-2560.792z"/>
		<path id="path16801_3_" fill="#1A1A1A" fill-opacity="0.9529" d="M16280.063-1864.103
			c-152.623-197.302-258.619-91.881-366.584,0.765c88.262-7.381,179.593-21.393,248.226-9.621
			c-66.603,23.227-157.197,19.26-248.782,18.988C16032.912-1751.055,16154.636-1725.16,16280.063-1864.103z"/>
		<path id="path16805_3_" fill="#1A1A1A" fill-opacity="0.9529" d="M15476.294-1057.032c197.302-152.623,91.88-258.62-0.766-366.584
			c7.381,88.262,21.393,179.593,9.621,248.225c-23.228-66.602-19.26-157.198-18.988-248.783
			C15363.246-1304.183,15337.351-1182.46,15476.294-1057.032z"/>
		<path id="path16807_3_" fill="#1A1A1A" fill-opacity="0.9529" d="M14777.954-1458.313
			c230.826,94.558,269.911-49.739,317.088-183.955c-72.746,50.523-144.835,108.323-210.159,132.445
			c46.066-53.416,126.507-95.279,205.958-140.836C14935.47-1679.791,14817.106-1641.355,14777.954-1458.313z"/>
	</g>
	<g id="g16809_3_" transform="matrix(0.17290942,0,0,0.17290942,-2255.2887,619.58902)">
		<path id="rect16749_4_" fill="#1A1A1A" fill-opacity="0.9529" d="M14392.497-673.54
			c143.148-89.31,334.354-212.318,500.742-214.374c-102.13-215.839-112.446-232.002-230.981-351.991
			c278.605,98.005,488.161,331.472,682.716,609.38l-55.611,85.633C15198.897-763.781,14815.662-796.102,14392.497-673.54z"/>
		
			<ellipse id="path16752_4_" transform="matrix(0.9856 -0.1689 0.1689 0.9856 371.3878 2456.1257)" fill="#1A1A1A" fill-opacity="0.9529" cx="14619.604" cy="-954.471" rx="109.286" ry="96.992"/>
		<path id="path16770_4_" fill="#1A1A1A" fill-opacity="0.9529" d="M14104.953-1175.561
			c26.252,126.98,99.816,101.935,171.385,83.305c-42.906-16.696-88.76-30.996-118.127-52.157
			c36.406,4.352,77.813,26.881,120.524,47.91C14246.184-1171.953,14195.243-1211.827,14104.953-1175.561z"/>
		<path id="path16775_4_" fill="#1A1A1A" fill-opacity="0.9529" d="M13801.389-985.762
			c137.017,208.443,250.798,111.475,365.56,27.396c-88.567,0.579-180.705,7.534-248.23-9.475
			c68.189-18.042,158.212-7.128,249.506,0.178C14056.494-1079.49,13937.119-1114.659,13801.389-985.762z"/>
		<path id="path16785_4_" fill="#1A1A1A" fill-opacity="0.9529" d="M14416.644-1474.333
			c-71.226,108.352-1.498,142.66,62.281,180.093c-18.533-42.145-40.845-84.68-46.647-120.409
			c22.666,28.821,36.015,74.03,51.347,119.101C14513.957-1371.917,14506.133-1436.133,14416.644-1474.333z"/>
		<path id="path16787_4_" fill="#1A1A1A" fill-opacity="0.9529" d="M14095.819-743.899c108.352,71.226,142.659,1.498,180.093-62.281
			c-42.146,18.533-84.681,40.845-120.409,46.648c28.82-22.666,74.029-36.015,119.101-51.347
			C14198.234-841.212,14134.02-833.388,14095.819-743.899z"/>
		<path id="path16789_4_" fill="#1A1A1A" fill-opacity="0.9529" d="M14536-391.092c115.859-58.223,72.627-122.798,36.109-187.106
			c-5.022,45.766-6.967,93.758-19.807,127.601c-5.219-36.293,5.825-82.119,15.083-128.818
			C14502.932-528.444,14477.601-468.919,14536-391.092z"/>
		<path id="path16791_4_" fill="#1A1A1A" fill-opacity="0.9529" d="M14955.317-493.992
			c40.755-123.094-35.476-138.187-106.771-157.837c28.81,35.912,61.37,71.223,76.223,104.233
			c-29.354-21.973-53.948-62.186-80.423-101.753C14834.813-567.731,14858.991-507.729,14955.317-493.992z"/>
		<path id="path16793_4_" fill="#1A1A1A" fill-opacity="0.9529" d="M14974.255-1388.884
			c-129.448-7.507-124.297,70.033-124.825,143.984c27.232-37.123,52.913-77.713,80.954-100.603
			c-13.627,34.04-46.104,68.205-77.472,104.019C14934.217-1253.401,14985.916-1292.285,14974.255-1388.884z"/>
		<path id="path16797_4_" fill="#1A1A1A" fill-opacity="0.9529" d="M14102.105-1555.021
			c-59.488,242.246,88.994,259.627,228.699,286.497c-60.697-64.502-128.495-127.28-161.985-188.332
			c59.625,37.686,112.891,111.075,169.665,182.94C14344.389-1431.885,14288.92-1543.287,14102.105-1555.021z"/>
		<path id="path16799_4_" fill="#1A1A1A" fill-opacity="0.9529" d="M14756.618-1716.477
			c-222.8,112.172-139.54,236.336-69.196,359.995c9.596-88.048,13.268-180.375,37.919-245.501
			c10.092,69.811-11.088,157.984-28.83,247.835C14820.43-1452.295,14869.075-1566.841,14756.618-1716.477z"/>
		<path id="path16801_4_" fill="#1A1A1A" fill-opacity="0.9529" d="M15365.56-1189.319
			c-208.544-136.864-274.443-2.677-346.363,120.072c81.051-35.714,162.844-78.697,231.569-89.911
			c-55.411,43.645-142.362,69.389-229.046,98.949C15168.678-1001.966,15292.2-1017.11,15365.56-1189.319z"/>
		<path id="path16805_4_" fill="#1A1A1A" fill-opacity="0.9529" d="M14868.336-164.536
			c136.864-208.543,2.677-274.443-120.071-346.363c35.714,81.05,78.697,162.844,89.911,231.569
			c-43.646-55.412-69.39-142.363-98.949-229.047C14680.983-361.418,14696.128-237.896,14868.336-164.536z"/>
		<path id="path16807_4_" fill="#1A1A1A" fill-opacity="0.9529" d="M14077.398-316.598
			c249.036,14.256,239.014-134.903,239.924-277.166c-52.335,71.454-101.679,149.576-155.59,193.65
			c26.165-65.504,88.595-131.274,148.886-200.216C14154.227-577.291,14054.825-502.414,14077.398-316.598z"/>
	</g>
	<g id="g16809_4_" transform="matrix(0.17290942,0,0,0.17290942,-2255.2887,619.58902)">
		<path id="rect16749_6_" fill="#1A1A1A" fill-opacity="0.9529" d="M13968.439,550.912
			c106.273-131.049,247.014-309.606,403.668-365.721c-166.837-170.83-181.854-182.753-332.995-257.613
			c295.335,1.961,569.482,154.484,843.915,353.909l-24.701,99.073C14701.526,203.049,14328.646,297.258,13968.439,550.912z"/>
		
			<ellipse id="path16752_6_" transform="matrix(0.8769 -0.4806 0.4806 0.8769 1632.7413 6798.8398)" fill="#1A1A1A" fill-opacity="0.9529" cx="14091.711" cy="211.347" rx="109.286" ry="96.992"/>
		<path id="path16770_6_" fill="#1A1A1A" fill-opacity="0.9529" d="M13533.119,169.857
			c66.163,111.515,127.565,63.884,189.169,22.969c-46.005-1.818-94.016-0.41-128.672-10.857c35.84-7.738,82.325,0.083,129.557,6.06
			C13667.829,127.288,13606.683,106.171,13533.119,169.857z"/>
		<path id="path16775_6_" fill="#1A1A1A" fill-opacity="0.9529" d="M13307.886,448.146
			c197.414,152.479,273.427,23.75,354.563-93.111c-83.554,29.382-168.407,65.956-237.791,71.857
			c58.601-39.26,147.271-58.249,235.971-81.063C13518.578,276.47,13394.257,282.082,13307.886,448.146z"/>
		<path id="path16785_6_" fill="#1A1A1A" fill-opacity="0.9529" d="M13730.558-214.114
			c-32.069,125.637,45.029,135.375,117.521,150.004c-31.245-33.815-66.189-66.769-83.308-98.662
			c30.814,19.871,58.154,58.271,87.325,95.896C13855.912-148.96,13827.607-207.13,13730.558-214.114z"/>
		<path id="path16787_6_" fill="#1A1A1A" fill-opacity="0.9529" d="M13665.018,580.975
			c125.638,32.069,135.376-45.029,150.005-117.521c-33.815,31.245-66.769,66.189-98.662,83.308
			c19.871-30.815,58.271-58.154,95.896-87.325C13730.172,455.62,13672.002,483.925,13665.018,580.975z"/>
		<path id="path16789_6_" fill="#1A1A1A" fill-opacity="0.9529" d="M14196.08,771.251c90.591-92.771,28.69-139.753-26.774-188.668
			c10.151,44.907,23.938,90.918,22.815,127.098c-16.75-32.617-21.227-79.542-27.678-126.711
			C14120.096,652.149,14115.523,716.677,14196.08,771.251z"/>
		<path id="path16791_6_" fill="#1A1A1A" fill-opacity="0.9529" d="M14559.052,537.442
			c-1.541-129.657-78.532-119.108-152.34-114.476c38.932,24.576,81.214,47.362,106.005,73.739
			c-34.908-11.219-71.255-41.234-109.17-70.027C14421.104,506.952,14463.501,555.814,14559.052,537.442z"/>
		<path id="path16793_6_" fill="#1A1A1A" fill-opacity="0.9529" d="M14285.608-314.861
			c-124.84,35.046-94.724,106.684-71.147,176.778c13.663-43.966,24.729-90.706,43.79-121.478
			c-1.802,36.622-21.387,79.499-39.386,123.574C14291.861-173.724,14328.085-227.321,14285.608-314.861z"/>
		<path id="path16797_6_" fill="#1A1A1A" fill-opacity="0.9529" d="M13406.887-188.003
			c22.62,248.416,168.672,216.508,309.514,196.431c-78.39-41.226-162.934-78.511-214.476-125.334
			c68.646,16.221,142.903,68.27,219.981,117.735C13676.059-150.455,13587.343-237.728,13406.887-188.003z"/>
		<path id="path16799_6_" fill="#1A1A1A" fill-opacity="0.9529" d="M13973.176-553.75c-174.142,178.597-54.994,268.89,51.776,362.91
			c-19.593-86.376-46.18-174.868-44.074-244.471c32.271,62.722,40.95,152.987,53.428,243.719
			C14119.52-324.737,14128.222-448.88,13973.176-553.75z"/>
		<path id="path16801_6_" fill="#1A1A1A" fill-opacity="0.9529" d="M14720.566-253.565
			c-241.74-61.513-260.362,86.819-288.401,226.294c65.008-60.155,128.351-127.426,189.682-160.404
			c-38.184,59.308-112.016,111.958-184.354,168.129C14595.407-12.32,14707.27-66.855,14720.566-253.565z"/>
		<path id="path16805_6_" fill="#1A1A1A" fill-opacity="0.9529" d="M14584.069,877.266
			c61.513-241.74-86.819-260.362-226.295-288.401c60.155,65.007,127.427,128.35,160.404,189.681
			c-59.308-38.183-111.957-112.016-168.129-184.353C14342.825,752.107,14397.359,863.969,14584.069,877.266z"/>
		<path id="path16807_6_" fill="#1A1A1A" fill-opacity="0.9529" d="M13786.717,990.993
			c240.109-67.599,182.071-205.369,136.615-340.177c-26.22,84.6-47.441,174.53-84.066,233.755
			c3.414-70.454,41.029-152.966,75.59-237.78C13774.485,719.49,13704.878,822.649,13786.717,990.993z"/>
	</g>
	<g id="g16809_5_" transform="matrix(0.17290942,0,0,0.17290942,-2255.2887,619.58902)">
		<path id="rect16749_8_" fill="#1A1A1A" fill-opacity="0.9529" d="M13966.127,1846.714
			c57.818-158.509,132.759-373.158,262.608-477.217c-213.364-107.206-231.444-113.591-398.724-135.166
			c279.883-94.298,588.751-39.338,913.159,59.876l8.899,101.717C14546.021,1279.133,14224.129,1489.607,13966.127,1846.714z"/>
		
			<ellipse id="path16752_8_" transform="matrix(0.6727 -0.7399 0.7399 0.6727 3474.2529 10824.7744)" fill="#1A1A1A" fill-opacity="0.9529" cx="13972.131" cy="1485.516" rx="109.286" ry="96.992"/>
		<path id="path16770_8_" fill="#1A1A1A" fill-opacity="0.9529" d="M13430.465,1628.145
			c98.864,83.899,141.414,18.873,186.341-39.869c-44.09,13.259-89.026,30.221-125.197,31.626
			c31.369-18.985,77.867-26.724,124.472-36.449C13543.977,1544.038,13479.286,1543.979,13430.465,1628.145z"/>
		<path id="path16775_8_" fill="#1A1A1A" fill-opacity="0.9529" d="M13308.104,1964.602
			c236.301,79.9,266.263-66.563,304.932-203.472c-69.436,54.984-137.759,117.191-201.442,145.36
			c42.627-56.199,120.285-103.022,196.724-153.471C13451.425,1733.684,13335.704,1779.465,13308.104,1964.602z"/>
		<path id="path16785_8_" fill="#1A1A1A" fill-opacity="0.9529" d="M13492.138,1200.814
			c10.581,129.233,86.649,113.34,159.954,103.571c-40.552-21.801-84.32-41.582-110.89-66.165
			c35.604,8.757,73.957,36.164,113.788,62.241C13631.875,1221.606,13586.174,1175.821,13492.138,1200.814z"/>
		<path id="path16787_8_" fill="#1A1A1A" fill-opacity="0.9529" d="M13689.024,1973.923
			c129.233-10.581,113.34-86.65,103.571-159.954c-21.801,40.552-41.582,84.321-66.165,110.89
			c8.757-35.605,36.164-73.957,62.241-113.788C13709.817,1834.186,13664.032,1879.887,13689.024,1973.923z"/>
		<path id="path16789_8_" fill="#1A1A1A" fill-opacity="0.9529" d="M14253.101,1980.936c55.453-117.21-18.371-141.48-86.739-169.672
			c24.219,39.156,52.233,78.171,62.952,112.745c-26.457-25.386-45.968-68.297-67.423-110.796
			C14142.48,1893.06,14159.166,1955.562,14253.101,1980.936z"/>
		<path id="path16791_8_" fill="#1A1A1A" fill-opacity="0.9529" d="M14520.177,1641.693
			c-43.669-122.091-113.032-87.051-181.311-58.642c44.813,10.562,92.21,18.341,124.236,35.209
			c-36.658,0.757-80.797-15.79-126.02-30.669C14379.819,1657.775,14435.813,1690.172,14520.177,1641.693z"/>
		<path id="path16793_8_" fill="#1A1A1A" fill-opacity="0.9529" d="M13984.148,924.849c-106.629,73.78-54.83,131.711-9.718,190.31
			c-1.396-46.019-6.149-93.815,1.854-129.116c10.22,35.213,5.66,82.131,2.992,129.664
			C14036.01,1056.261,14052.811,993.791,13984.148,924.849z"/>
		<path id="path16797_8_" fill="#1A1A1A" fill-opacity="0.9529" d="M13194.602,1330.88
			c102.265,227.517,229.971,149.798,356.603,84.962c-87.541-13.459-179.617-21.188-243.595-48.68
			c70.187-7.012,157.344,18.026,246.327,39.702C13461.333,1278.748,13349.037,1225.112,13194.602,1330.88z"/>
		<path id="path16799_8_" fill="#1A1A1A" fill-opacity="0.9529" d="M13610.963,800.693
			c-106.509,225.561,35.544,272.145,167.106,326.281c-46.646-75.291-100.595-150.306-121.264-216.803
			c50.932,48.798,88.527,131.32,129.863,213.046C13823.893,969.584,13791.704,849.371,13610.963,800.693z"/>
		<path id="path16801_8_" fill="#1A1A1A" fill-opacity="0.9529" d="M14415.365,841.197
			c-248.596,20.542-217.912,166.855-199.014,307.86c41.881-78.042,79.871-162.271,127.124-213.419
			c-16.794,68.508-69.463,142.327-119.571,218.988C14375.566,1110.046,14463.579,1022.064,14415.365,841.197z"/>
		<path id="path16805_8_" fill="#1A1A1A" fill-opacity="0.9529" d="M14654.468,1954.858
			c-20.542-248.596-166.855-217.912-307.86-199.014c78.042,41.881,162.271,79.872,213.419,127.124
			c-68.508-16.794-142.326-69.463-218.988-119.572C14385.618,1915.059,14473.601,2003.072,14654.468,1954.858z"/>
		<path id="path16807_8_" fill="#1A1A1A" fill-opacity="0.9529" d="M13937.582,2321.981
			c205.02-142.088,105.289-253.456,18.421-366.121c2.751,88.527,11.965,180.466-3.383,248.389
			c-19.71-67.727-11.007-157.99-5.942-249.435C13837.624,2069.252,13805.394,2189.454,13937.582,2321.981z"/>
	</g>
	<g id="g16809_6_" transform="matrix(0.17290942,0,0,0.17290942,-2255.2887,619.58902)">
		<path id="rect16749_10_" fill="#1A1A1A" fill-opacity="0.9529" d="M14385.813,3072.671c3.063-168.697,4.037-396.05,92.935-536.715
			c-236.643-31.901-255.816-32.051-421.006,2.01c233.934-180.281,543.867-228.873,882.902-240.682l41.53,93.278
			C14749.328,2347.218,14513.495,2651.023,14385.813,3072.671z"/>
		
			<ellipse id="path16752_10_" transform="matrix(0.3951 -0.9186 0.9186 0.3951 6126.8076 14763.2139)" fill="#1A1A1A" fill-opacity="0.9529" cx="14273.896" cy="2729.197" rx="109.286" ry="96.992"/>
		<path id="path16770_10_" fill="#1A1A1A" fill-opacity="0.9529" d="M13808.175,3040.405
			c120.793,47.142,139.854-28.196,163.209-98.364c-37.371,26.891-74.338,57.559-108.08,70.663
			c23.479-28.163,64.925-50.619,105.823-74.988C13888.12,2923.925,13826.935,2944.929,13808.175,3040.405z"/>
		<path id="path16775_10_" fill="#1A1A1A" fill-opacity="0.9529" d="M13802.021,3398.367
			c249.44-1.385,230.085-149.623,222.075-291.663c-47.752,74.594-92.101,155.656-143.143,203.024
			c22.007-67.015,80.19-136.571,136.04-209.156C13862.354,3133.37,13767.843,3214.332,13802.021,3398.367z"/>
		<path id="path16785_10_" fill="#1A1A1A" fill-opacity="0.9529" d="M13727.362,2616.277
			c52.079,118.748,118.829,78.954,184.959,45.852c-45.439-7.411-93.264-11.865-126.39-26.458
			c36.517-3.313,81.702,10.115,127.853,21.804C13866.256,2590.442,13808.139,2562.03,13727.362,2616.277z"/>
		<path id="path16787_10_" fill="#1A1A1A" fill-opacity="0.9529" d="M14165.223,3283.166
			c118.747-52.079,78.954-118.829,45.852-184.959c-7.41,45.44-11.864,93.264-26.457,126.39
			c-3.313-36.516,10.115-81.702,21.804-127.853C14139.388,3144.272,14110.977,3202.389,14165.223,3283.166z"/>
		<path id="path16789_10_" fill="#1A1A1A" fill-opacity="0.9529" d="M14700.851,3106.151
			c14.271-128.878-63.432-127.791-137.254-132.189c35.647,29.138,74.838,56.907,96.229,86.108
			c-33.28-15.389-65.698-49.611-99.821-82.809C14567.647,3059.077,14603.772,3112.741,14700.851,3106.151z"/>
		<path id="path16791_10_" fill="#1A1A1A" fill-opacity="0.9529" d="M14842.929,2698.439
			c-81.039-101.222-135.215-45.509-190.524,3.581c45.81-4.603,93.157-12.679,128.931-7.156
			c-34.414,12.651-81.535,11.376-129.139,12.03C14715.454,2759.341,14778.944,2771.743,14842.929,2698.439z"/>
		<path id="path16793_10_" fill="#1A1A1A" fill-opacity="0.9529" d="M14102.723,2195.163
			c-76.799,104.476-8.963,142.386,52.771,183.106c-16.303-43.058-36.357-86.702-40.282-122.686
			c21.126,29.968,32.091,75.813,45.043,121.625C14194.542,2302.532,14190.089,2237.995,14102.723,2195.163z"/>
		<path id="path16797_10_" fill="#1A1A1A" fill-opacity="0.9529" d="M13488.382,2836.125
			c170.766,181.827,266.211,66.766,364.836-35.766c-87.154,15.775-176.729,38.444-246.173,33.28
			c64.08-29.48,154.641-34.182,245.833-42.657C13723.609,2699.994,13599.97,2685.84,13488.382,2836.125z"/>
		<path id="path16799_10_" fill="#1A1A1A" fill-opacity="0.9529" d="M13709.447,2199.269
			c-27.271,247.948,122.209,245.746,264.229,254.1c-68.617-56.003-144.049-109.367-185.241-165.511
			c64.044,29.558,126.457,95.344,192.149,159.16C13965.763,2289.636,13896.19,2186.452,13709.447,2199.269z"/>
		<path id="path16801_10_" fill="#1A1A1A" fill-opacity="0.9529" d="M14483.212,1975.679
			c-228.364,100.357-151.718,228.709-87.942,355.88c14.191-87.426,22.69-179.434,50.716-243.18
			c6.425,70.243-19.341,157.188-41.762,245.986C14533.109,2242.838,14587.684,2130.995,14483.212,1975.679z"/>
		<path id="path16805_10_" fill="#1A1A1A" fill-opacity="0.9529" d="M15071.859,2950.822
			c-100.357-228.365-228.709-151.717-355.88-87.942c87.426,14.191,179.434,22.69,243.18,50.716
			c-70.243,6.424-157.188-19.342-245.986-41.762C14804.701,3000.72,14916.544,3055.293,15071.859,2950.822z"/>
		<path id="path16807_10_" fill="#1A1A1A" fill-opacity="0.9529" d="M14513.555,3531.339
			c147.591-201.094,17.036-273.927-101.779-352.172c31.423,82.808,70.066,166.739,77.668,235.958
			c-40.686-57.62-61.844-145.799-86.826-233.911C14336.763,3324.922,14345.422,3449.068,14513.555,3531.339z"/>
	</g>
	<g id="g16809_7_" transform="matrix(0.17290942,0,0,0.17290942,-2255.2887,619.58902)">
		<path id="rect16749_12_" fill="#1A1A1A" fill-opacity="0.9529" d="M15181.766,4095.2
			c-52.026-160.503-125.124-375.787-86.865-537.73c-234.136,46.881-252.314,52.981-397.415,138.967
			c162.495-246.62,439.723-393.47,756.442-515.014l69.636,74.675C15289.292,3290.922,15165.217,3654.954,15181.766,4095.2z"/>
		
			<ellipse id="path16752_12_" transform="matrix(0.0745 -0.9972 0.9972 0.0745 10052.6729 18445.6914)" fill="#1A1A1A" fill-opacity="0.9529" cx="14964.122" cy="3806.875" rx="109.286" ry="96.992"/>
		<path id="path16770_12_" fill="#1A1A1A" fill-opacity="0.9529" d="M14625.095,4252.752
			c129.559,5.247,123.055-72.191,122.292-146.14c-26.58,37.593-51.548,78.625-79.186,102c13.03-34.273,44.907-68.999,75.645-105.355
			C14662.762,4116.59,14611.748,4156.371,14625.095,4252.752z"/>
		<path id="path16775_12_" fill="#1A1A1A" fill-opacity="0.9529" d="M14735.816,4593.216
			c235.398-82.519,168.837-216.379,115.02-348.073c-20.865,86.077-36.406,177.161-69.246,238.565
			c-1.01-70.529,31.358-155.237,60.533-242.051C14706.588,4323.014,14643.584,4430.334,14735.816,4593.216z"/>
		<path id="path16785_12_" fill="#1A1A1A" fill-opacity="0.9529" d="M14410.602,3878.041
			c87.902,95.323,138.06,35.966,189.811-16.863c-45.377,7.787-92.046,19.146-128.118,16.132
			c33.449-15.02,80.544-17.035,127.986-21.009C14533.518,3808.395,14469.316,3800.452,14410.602,3878.041z"/>
		<path id="path16787_12_" fill="#1A1A1A" fill-opacity="0.9529" d="M15041.725,4366.044
			c95.322-87.902,35.966-138.06-16.863-189.811c7.787,45.377,19.146,92.046,16.133,128.118
			c-15.021-33.448-17.036-80.543-21.009-127.985C14972.078,4243.128,14964.135,4307.329,15041.725,4366.044z"/>
		<path id="path16789_12_" fill="#1A1A1A" fill-opacity="0.9529" d="M15490.54,4024.29
			c-28.464-126.503-101.58-100.177-172.813-80.302c43.191,15.945,89.287,29.442,119.02,50.088
			c-36.478-3.716-78.271-25.519-121.343-45.799C15349.269,4023.147,15400.896,4062.127,15490.54,4024.29z"/>
		<path id="path16791_12_" fill="#1A1A1A" fill-opacity="0.9529" d="M15492.14,3592.534
			c-109.578-69.324-142.664,0.992-178.979,65.415c41.815-19.266,83.954-42.317,119.577-48.742
			c-28.422,23.166-73.391,37.301-118.188,53.418C15391.438,3691.62,15455.507,3682.676,15492.14,3592.534z"/>
		<path id="path16793_12_" fill="#1A1A1A" fill-opacity="0.9529" d="M14628.41,3357.666
			c-38.601,123.787,37.883,137.546,109.509,155.949c-29.432-35.404-62.604-70.141-78.03-102.887
			c29.732,21.457,55.025,61.235,82.188,100.334C14750.184,3429.291,14724.962,3369.72,14628.41,3357.666z"/>
		<path id="path16797_12_" fill="#1A1A1A" fill-opacity="0.9529" d="M14256.217,4163.716
			c220.659,116.325,273.444-23.542,333.314-152.596c-77.27,43.29-154.585,93.887-221.926,111.612
			c50.991-48.737,135.086-82.666,218.552-120.368C14434.309,3958.419,14312.797,3985.29,14256.217,4163.716z"/>
		<path id="path16799_12_" fill="#1A1A1A" fill-opacity="0.9529" d="M14257.897,3489.586
			c54.94,243.318,195.559,192.57,332.562,154.231c-83.111-30.612-171.808-56.511-229.034-96.185
			c70.178,7.097,150.608,48.979,233.498,87.931C14529.669,3491.581,14430.294,3416.669,14257.897,3489.586z"/>
		<path id="path16801_12_" fill="#1A1A1A" fill-opacity="0.9529" d="M14916.713,3026.264
			c-183.25,169.238-68.991,265.643,32.712,365.122c-15.045-87.282-36.964-177.045-31.219-246.442
			c28.944,64.324,32.888,154.921,40.6,246.181C15050.871,3262.622,15066.059,3139.105,14916.713,3026.264z"/>
		<path id="path16805_12_" fill="#1A1A1A" fill-opacity="0.9529" d="M15790.766,3756.634
			c-169.238-183.25-265.644-68.991-365.122,32.712c87.282-15.045,177.045-36.964,246.442-31.219
			c-64.324,28.943-154.921,32.888-246.181,40.599C15554.407,3890.792,15677.925,3905.98,15790.766,3756.634z"/>
		<path id="path16807_12_" fill="#1A1A1A" fill-opacity="0.9529" d="M15451.876,4487.291
			c74.08-238.189-73.073-264.549-210.891-299.849c56.671,68.066,120.534,134.843,150.258,197.816
			c-57.229-41.235-105.942-117.721-158.251-192.899C15217.513,4349.677,15266.118,4464.24,15451.876,4487.291z"/>
	</g>
	<g id="g16809_8_" transform="matrix(0.17290942,0,0,0.17290942,-2255.2887,619.58902)">
		<path id="rect16749_14_" fill="#1A1A1A" fill-opacity="0.9529" d="M16267.258,4802.883
			c-101.447-134.821-240.651-314.577-257.202-480.153c-206.116,120.554-221.318,132.239-330.52,260.781
			c73.351-286.087,287.665-515.193,547.558-733.229l90.154,47.936C16107.078,4007.416,16108.28,4392.011,16267.258,4802.883z"/>
		
			<ellipse id="path16752_14_" transform="matrix(0.9672 -0.2542 0.2542 0.9672 -645.0974 4210.1162)" fill="#1A1A1A" fill-opacity="0.9529" cx="15967.602" cy="4601.125" rx="96.992" ry="109.286"/>
		<path id="path16770_14_" fill="#1A1A1A" fill-opacity="0.9529" d="M15792.208,5133.086
			c124.209-37.219,92.848-108.321,68.052-177.993c-12.894,44.198-23.143,91.124-41.664,122.224
			c1.163-36.648,19.997-79.86,37.223-124.242C15783.493,4992.08,15748.21,5046.301,15792.208,5133.086z"/>
		<path id="path16775_14_" fill="#1A1A1A" fill-opacity="0.9529" d="M16007.742,5418.954
			c195.708-154.662,89.192-259.559-4.569-366.556c8.297,88.18,23.256,179.361,12.196,248.112
			c-23.917-66.358-20.89-156.989-21.568-248.572C15892.137,5172.988,15867.505,5294.974,16007.742,5418.954z"/>
		<path id="path16785_14_" fill="#1A1A1A" fill-opacity="0.9529" d="M15467.407,4848.622
			c114.147,61.511,142.248-10.941,173.979-77.74c-40.37,22.136-80.798,48.07-115.886,56.964
			c26.736-25.092,70.609-42.33,114.173-61.532C15560.952,4742.753,15497.663,4756.145,15467.407,4848.622z"/>
		<path id="path16787_14_" fill="#1A1A1A" fill-opacity="0.9529" d="M16223.023,5104.564
			c61.512-114.147-10.941-142.248-77.74-173.979c22.136,40.37,48.07,80.798,56.965,115.886
			c-25.092-26.736-42.33-70.609-61.532-114.173C16117.154,5011.02,16130.546,5074.309,16223.023,5104.564z"/>
		<path id="path16789_14_" fill="#1A1A1A" fill-opacity="0.9529" d="M16536.123,4635.31c-68.1-110.344-128.66-61.648-189.541-19.665
			c46.029,1.015,94.008-1.231,128.842,8.61c-35.699,8.362-82.314,1.354-129.642-3.798
			C16402.176,4680.223,16463.682,4700.27,16536.123,4635.31z"/>
		<path id="path16791_14_" fill="#1A1A1A" fill-opacity="0.9529" d="M16397.07,4226.556
			c-126.179-29.872-134.569,47.385-147.932,120.121c33.266-31.83,65.604-67.344,97.193-85.017
			c-19.33,31.157-57.247,59.163-94.356,88.985C16334.113,4353.029,16391.779,4323.713,16397.07,4226.556z"/>
		<path id="path16793_14_" fill="#1A1A1A" fill-opacity="0.9529" d="M15503.932,4285.686c3.804,129.61,80.6,117.719,154.314,111.801
			c-39.354-23.894-82.028-45.938-107.275-71.877c35.099,10.608,71.964,39.984,110.375,68.11
			C15642.39,4313.763,15599.147,4265.649,15503.932,4285.686z"/>
		<path id="path16797_14_" fill="#1A1A1A" fill-opacity="0.9529" d="M15414.439,5168.996
			c246.51,38.148,250.883-111.284,265.476-252.799c-58.967,66.088-115.597,139.1-173.498,177.783
			c32.346-62.683,100.813-122.142,167.456-184.964C15515.991,4916.903,15409.848,4981.87,15414.439,5168.996z"/>
		<path id="path16799_14_" fill="#1A1A1A" fill-opacity="0.9529" d="M15196.555,4531.045
			c131.162,212.175,247.599,118.411,364.655,37.558c-88.55-1.886-180.846,2.503-247.871-16.378
			c68.665-16.138,158.35-2.723,249.404,7.121C15454.169,4444.452,15335.818,4405.975,15196.555,4531.045z"/>
		<path id="path16801_14_" fill="#1A1A1A" fill-opacity="0.9529" d="M15668.634,3878.477
			c-118.168,219.678,21.252,273.632,149.802,334.58c-42.642-77.629-92.591-155.365-109.752-222.852
			c48.309,51.397,81.533,135.773,118.536,219.551C15872.433,4058.281,15846.58,3936.548,15668.634,3878.477z"/>
		<path id="path16805_14_" fill="#1A1A1A" fill-opacity="0.9529" d="M16732.852,4284.492
			c-219.678-118.167-273.631,21.252-334.58,149.802c77.629-42.642,155.365-92.59,222.854-109.751
			c-51.398,48.309-135.773,81.533-219.553,118.536C16553.049,4488.292,16674.781,4462.439,16732.852,4284.492z"/>
		<path id="path16807_14_" fill="#1A1A1A" fill-opacity="0.9529" d="M16650.305,5085.673
			c-7.504-249.331-155.223-226.346-297.023-214.854c75.744,45.908,157.869,88.255,206.475,138.12
			c-67.535-20.357-138.496-76.816-212.431-130.869C16383.906,5031.858,16467.162,5124.355,16650.305,5085.673z"/>
	</g>
	<g id="g16809_9_" transform="matrix(0.17290942,0,0,0.17290942,-2255.2887,619.58902)">
		<path id="rect16749_16_" fill="#1A1A1A" fill-opacity="0.9529" d="M17524.01,5118.609
			c-139.814-94.448-329.957-219.09-399.512-370.257c-155.639,181.091-166.209,197.089-227.611,354.18
			c-23.787-294.381,104.262-580.779,279.01-871.549l100.85,15.973C17113.578,4418.63,17239.926,4781.879,17524.01,5118.609z"/>
		
			<ellipse id="path16752_16_" transform="matrix(0.8317 -0.5552 0.5552 0.8317 100.3209 10381.7646)" fill="#1A1A1A" fill-opacity="0.9529" cx="17174.992" cy="5025.402" rx="96.992" ry="109.286"/>
		<path id="path16770_16_" fill="#1A1A1A" fill-opacity="0.9529" d="M17182.344,5585.484
			c105.326-75.63,52.523-132.648,6.396-190.451c2.197,45.988,7.785,93.693,0.398,129.128c-10.832-35.029-7.094-82.019-5.256-129.592
			C17128.197,5454.996,17112.49,5517.75,17182.344,5585.484z"/>
		<path id="path16775_16_" fill="#1A1A1A" fill-opacity="0.9529" d="M17479.205,5785.605
			c134.693-209.952-0.172-274.456-123.658-345.098c36.553,80.675,80.383,162.018,92.309,230.624
			c-44.219-54.956-70.863-141.635-101.32-228.008C17289.818,5590.678,17306.244,5714.037,17479.205,5785.605z"/>
		<path id="path16785_16_" fill="#1A1A1A" fill-opacity="0.9529" d="M16782.627,5422.262
			c127.955,20.997,130.936-56.657,139.191-130.147c-30.965,34.073-60.746,71.756-91.027,91.589
			c17.111-32.429,52.982-63.012,87.92-95.351C16836.607,5291.706,16781.127,5324.973,16782.627,5422.262z"/>
		<path id="path16787_16_" fill="#1A1A1A" fill-opacity="0.9529" d="M17580.402,5418.256
			c20.998-127.955-56.656-130.936-130.146-139.191c34.072,30.963,71.756,60.746,91.59,91.026
			c-32.43-17.11-63.012-52.981-95.352-87.92C17449.846,5364.275,17483.113,5419.756,17580.402,5418.256z"/>
		<path id="path16789_16_" fill="#1A1A1A" fill-opacity="0.9529" d="M17723.67,4872.631
			c-100.313-82.162-141.723-16.402-185.617,43.115c43.852-14.026,88.486-31.77,124.627-33.806
			c-31.033,19.529-77.389,28.079-123.816,38.616C17611.643,4958.706,17676.324,4957.637,17723.67,4872.631z"/>
		<path id="path16791_16_" fill="#1A1A1A" fill-opacity="0.9529" d="M17459.115,4531.418
			c-129.029,12.835-111.811,88.615-100.764,161.738c21.09-40.926,40.104-85.033,64.219-112.028
			c-8.135,35.752-34.867,74.577-60.246,114.857C17440.764,4671.498,17485.744,4625.004,17459.115,4531.418z"/>
		<path id="path16793_16_" fill="#1A1A1A" fill-opacity="0.9529" d="M16633.887,4878.104
			c45.793,121.311,114.535,85.065,182.307,55.469c-44.99-9.778-92.516-16.729-124.832-33.036
			c36.639-1.397,81.061,14.377,126.535,28.465C16773.943,4859.574,16717.393,4828.16,16633.887,4878.104z"/>
		<path id="path16797_16_" fill="#1A1A1A" fill-opacity="0.9529" d="M16836.85,5742.426
			c245.498-44.186,200.982-186.9,168.707-325.457c-34.238,81.685-64.012,169.156-106.164,224.583
			c10.176-69.798,55.555-148.309,98.113-229.405C16850.795,5471.005,16771.584,5566.99,16836.85,5742.426z"/>
		<path id="path16799_16_" fill="#1A1A1A" fill-opacity="0.9529" d="M16423.137,5210.169
			c193.096,157.913,272.66,31.349,357.018-83.209c-84.34,27.046-170.178,61.244-239.699,65.213
			c59.67-37.614,148.836-54.128,238.135-74.466C16638.525,5044.422,16514.096,5046.572,16423.137,5210.169z"/>
		<path id="path16801_16_" fill="#1A1A1A" fill-opacity="0.9529" d="M16657.041,4439.459
			c-40.209,246.181,109.182,251.805,250.57,267.581c-65.594-59.517-138.129-116.756-176.326-174.979
			c62.41,32.869,121.295,101.832,183.557,168.998C16908.275,4543.116,16844.199,4436.433,16657.041,4439.459z"/>
		<path id="path16805_16_" fill="#1A1A1A" fill-opacity="0.9529" d="M17795.465,4476.878
			c-246.18-40.209-251.805,109.181-267.58,250.569c59.518-65.592,116.756-138.128,174.979-176.326
			c-32.869,62.41-101.83,121.294-168.998,183.557C17691.809,4728.113,17798.492,4664.036,17795.465,4476.878z"/>
		<path id="path16807_16_" fill="#1A1A1A" fill-opacity="0.9529" d="M17978.254,5261.285
			c-88.268-233.304-220.455-163.479-350.789-106.447c86.563,18.747,178,32.05,240.191,63.374
			c-70.482,2.739-155.959-27.542-243.463-54.579C17708.85,5297.132,17817.684,5357.484,17978.254,5261.285z"/>
	</g>
	<g id="g16809_10_" transform="matrix(0.17290942,0,0,0.17290942,-2255.2887,619.58902)">
		<path id="rect16749_18_" fill="#1A1A1A" fill-opacity="0.9529" d="M18815.082,5007.976
			c-162.945-43.783-383.311-99.73-498.291-220.017c-88.201,221.896-92.986,240.464-99.9,408.987
			c-118.332-270.599-90.5-583.082-19.938-914.903l100.553-17.73C18199.119,4479.756,18436.848,4782.08,18815.082,5007.976z"/>
		
			<ellipse id="path16752_18_" transform="matrix(0.6056 -0.7958 0.7958 0.6056 3272.7092 16670.4512)" fill="#1A1A1A" fill-opacity="0.9529" cx="18454.734" cy="5033.475" rx="96.992" ry="109.286"/>
		<path id="path16770_18_" fill="#1A1A1A" fill-opacity="0.9529" d="M18644.031,5560.649c74.963-105.8,6.475-142.521-55.959-182.157
			c17.051,42.767,37.865,86.054,42.418,121.964c-21.646-29.594-33.41-75.242-47.16-120.821
			C18550.352,5454.9,18555.93,5519.349,18644.031,5560.649z"/>
		<path id="path16775_18_" fill="#1A1A1A" fill-opacity="0.9529" d="M18989.871,5653.22
			c59.002-242.365-89.516-259.447-229.275-286.037c60.828,64.379,128.752,127.021,162.365,188.006
			c-59.701-37.566-113.115-110.848-170.033-182.599C18747.342,5530.57,18803.033,5641.861,18989.871,5653.22z"/>
		<path id="path16785_18_" fill="#1A1A1A" fill-opacity="0.9529" d="M18212.951,5536.456
			c127.818-21.804,105.355-96.198,89.234-168.373c-18.184,42.297-34.074,87.624-56.248,116.235
			c5.621-36.232,29.58-76.828,52.088-118.779C18221.484,5395.438,18179.857,5444.955,18212.951,5536.456z"/>
		<path id="path16787_18_" fill="#1A1A1A" fill-opacity="0.9529" d="M18965.959,5272.937
			c-21.805-127.819-96.199-105.356-168.373-89.236c42.297,18.184,87.623,34.075,116.234,56.248
			c-36.232-5.62-76.828-29.58-118.779-52.086C18824.939,5264.403,18874.457,5306.03,18965.959,5272.937z"/>
		<path id="path16789_18_" fill="#1A1A1A" fill-opacity="0.9529" d="M18923.781,4710.396
			c-121.598-45.026-139.34,30.632-161.467,101.197c36.896-27.539,73.322-58.847,106.83-72.538
			c-22.984,28.568-64.031,51.745-104.498,76.823C18845.881,4828.254,18906.691,4806.185,18923.781,4710.396z"/>
		<path id="path16791_18_" fill="#1A1A1A" fill-opacity="0.9529" d="M18562.553,4473.903
			c-117.822,54.144-76.869,120.189-42.617,185.731c6.615-45.563,10.234-93.457,24.246-126.833
			c3.949,36.453-8.688,81.866-19.568,128.213C18590.807,4612.325,18618.199,4553.721,18562.553,4473.903z"/>
		<path id="path16793_18_" fill="#1A1A1A" fill-opacity="0.9529" d="M17895.154,5070.369
			c82.793,99.792,135.988,43.142,190.432-6.906c-45.723,5.401-92.922,14.303-128.785,9.405
			c34.188-13.249,81.324-12.797,128.908-14.282C18021.547,5007.251,17957.85,4995.959,17895.154,5070.369z"/>
		<path id="path16797_18_" fill="#1A1A1A" fill-opacity="0.9529" d="M18368.453,5821.523
			c217.738-121.705,129.186-242.151,53.559-362.651c-5.779,88.381-5.453,180.78-27.264,246.911
			c-13.102-69.309,4.244-158.316,18.082-248.85C18293.273,5560.35,18249.629,5676.894,18368.453,5821.523z"/>
		<path id="path16799_18_" fill="#1A1A1A" fill-opacity="0.9529" d="M17803.996,5452.956
			c233.986,86.444,268.012-59.128,310.475-194.909c-70.939,53.031-140.967,113.312-205.408,139.699
			c44.174-54.992,123.104-99.636,200.918-147.938C17953.686,5226.116,17836.736,5268.659,17803.996,5452.956z"/>
		<path id="path16801_18_" fill="#1A1A1A" fill-opacity="0.9529" d="M17774.238,4648.083
			c42.129,245.86,185.211,202.541,324.033,171.425c-81.396-34.92-168.615-65.425-223.688-108.04
			c69.711,10.76,147.84,56.794,228.576,100.031C18045.531,4664.299,17950.213,4584.29,17774.238,4648.083z"/>
		<path id="path16805_18_" fill="#1A1A1A" fill-opacity="0.9529" d="M18862.82,4312.83
			c-245.859,42.13-202.539,185.212-171.424,324.034c34.92-81.396,65.424-168.615,108.039-223.687
			c-10.76,69.711-56.793,147.839-100.029,228.577C18846.605,4584.124,18926.615,4488.806,18862.82,4312.83z"/>
		<path id="path16807_18_" fill="#1A1A1A" fill-opacity="0.9529" d="M19291.029,4994.99
			c-159.416-191.855-261.67-82.799-366.334,13.559c87.949-10.457,178.736-27.648,247.738-18.278
			c-65.752,25.537-156.43,24.735-247.969,27.659C19047.973,5116.594,19170.525,5138.226,19291.029,4994.99z"/>
	</g>
	<g id="g16809_11_" transform="matrix(0.17290942,0,0,0.17290942,-2255.2887,619.58902)">
		<path id="rect16749_20_" fill="#1A1A1A" fill-opacity="0.9529" d="M19999.795,4483.038
			c-168.32,11.652-394.895,30.497-542.771-45.803c-11.154,238.522-9.635,257.636,38.695,419.229
			c-199.984-217.331-275.404-521.85-316.717-858.566l89.305-49.502C19245.42,4184.134,19568.623,4392.59,19999.795,4483.038z"/>
		
			<ellipse id="path16752_20_" transform="matrix(0.3136 -0.9496 0.9496 0.3136 9109.2725 21849.9668)" fill="#1A1A1A" fill-opacity="0.9529" cx="19667.383" cy="4624.466" rx="96.992" ry="109.286"/>
		<path id="path16770_20_" fill="#1A1A1A" fill-opacity="0.9529" d="M20017.996,5061.29
			c36.436-124.441-40.277-136.864-112.213-154.014c30.045,34.885,63.818,69.038,79.813,101.509
			c-30.102-20.935-56.084-60.265-83.924-98.885C19894.992,4991.801,19921.25,5050.922,20017.996,5061.29z"/>
		<path id="path16775_20_" fill="#1A1A1A" fill-opacity="0.9529" d="M20375.133,5036.222
			c-23.119-248.37-169.105-216.169-309.908-195.809c78.473,41.069,163.092,78.184,214.727,124.903
			c-68.678-16.083-143.039-67.983-220.217-117.293C20105.887,4999.215,20194.777,5086.311,20375.133,5036.222z"/>
		<path id="path16785_20_" fill="#1A1A1A" fill-opacity="0.9529" d="M19602.525,5178.76
			c113.756-62.23,68.297-125.258,29.559-188.252c-3.424,45.913-3.691,93.944-15.342,128.215
			c-6.482-36.088,2.955-82.272,10.578-129.266C19564.684,5042.646,19541.445,5103.019,19602.525,5178.76z"/>
		<path id="path16787_20_" fill="#1A1A1A" fill-opacity="0.9529" d="M20228.715,4684.443
			c-62.23-113.756-125.258-68.297-188.252-29.557c45.914,3.422,93.943,3.69,128.215,15.341
			c-36.088,6.482-82.271-2.956-129.266-10.578C20092.602,4722.285,20152.973,4745.523,20228.715,4684.443z"/>
		<path id="path16789_20_" fill="#1A1A1A" fill-opacity="0.9529" d="M20005.691,4166.281
			c-129.633-2.985-121.777,74.328-119.725,148.252c25.922-38.05,50.168-79.512,77.395-103.367
			c-12.432,34.495-43.697,69.772-73.795,106.659C19970.406,4303.08,20020.717,4262.416,20005.691,4166.281z"/>
		<path id="path16791_20_" fill="#1A1A1A" fill-opacity="0.9529" d="M19587.146,4060.278
			c-93.773,89.552-33.551,138.667,20.174,189.487c-8.578-45.234-20.75-91.697-18.367-127.816
			c15.604,33.181,18.439,80.234,23.24,127.6C19658.928,4181.96,19665.75,4117.63,19587.146,4060.278z"/>
		<path id="path16793_20_" fill="#1A1A1A" fill-opacity="0.9529" d="M19150.301,4841.531
			c110.771,67.401,142.625-3.482,177.809-68.528c-41.473,19.993-83.203,43.775-118.707,50.821
			c28.012-23.658,72.727-38.576,117.236-55.472C19249.258,4740.703,19185.354,4750.764,19150.301,4841.531z"/>
		<path id="path16797_20_" fill="#1A1A1A" fill-opacity="0.9529" d="M19842.365,5397.67
			c166.252-185.963,43.311-271.017-67.428-360.33c23.311,85.447,53.701,172.707,54.609,242.335
			c-34.953-61.267-47.531-151.072-63.922-241.179C19686.252,5175.203,19682.928,5299.605,19842.365,5397.67z"/>
		<path id="path16799_20_" fill="#1A1A1A" fill-opacity="0.9529" d="M19188.666,5232.952
			c249.383,5.556,234.16-143.163,230.104-285.371c-49.809,73.237-96.395,153.033-148.736,198.962
			c23.865-66.377,83.961-134.286,141.809-205.29C19256.35,4969.736,19159.621,5048.037,19188.666,5232.952z"/>
		<path id="path16801_20_" fill="#1A1A1A" fill-opacity="0.9529" d="M18898.488,4481.619
			c119.879,218.749,241.063,131.207,362.191,56.591c-88.33-6.518-180.729-6.965-246.676-29.329
			c69.416-12.522,158.275,5.568,248.691,20.164C19160.281,4408.626,19044.107,4364.008,18898.488,4481.619z"/>
		<path id="path16805_20_" fill="#1A1A1A" fill-opacity="0.9529" d="M19818.617,3810.222
			c-218.75,119.879-131.207,241.062-56.592,362.19c6.518-88.33,6.967-180.729,29.33-246.674
			c12.521,69.416-5.568,158.275-20.164,248.69C19891.609,4072.015,19936.229,3955.841,19818.617,3810.222z"/>
		<path id="path16807_20_" fill="#1A1A1A" fill-opacity="0.9529" d="M20445.584,4315.807
			c-213.191-129.502-274.369,6.903-341.961,132.086c79.754-38.521,159.998-84.333,228.291-97.938
			c-53.855,45.552-139.854,74.315-225.453,106.883C20255.361,4509.917,20378.279,4490.47,20445.584,4315.807z"/>
	</g>
	<g id="g16809_12_" transform="matrix(0.17290942,0,0,0.17290942,-2255.2887,619.58902)">
		<path id="rect16749_22_" fill="#1A1A1A" fill-opacity="0.9529" d="M20949.063,3600.995
			c-155.359,65.817-363.453,157.4-528.115,133.402c67.109,229.159,74.771,246.736,173.076,383.791
			c-259.846-140.382-430.297-403.757-578.982-708.677l68.322-75.879C20138.473,3563.975,20511.934,3655.85,20949.063,3600.995z"/>
		
			<ellipse id="path16752_22_" transform="matrix(0.9999 -0.0127 0.0127 0.9999 -47.0472 262.4333)" fill="#1A1A1A" fill-opacity="0.9529" cx="20680.803" cy="3842.94" rx="109.286" ry="96.992"/>
		<path id="path16770_22_" fill="#1A1A1A" fill-opacity="0.9529" d="M21154.531,4141.816
			c-6.064-129.524-82.641-116.295-156.242-109.09c39.766,23.203,82.818,44.499,108.514,69.994
			c-35.277-9.994-72.65-38.722-111.547-66.174C21015.605,4116.16,21059.68,4163.512,21154.531,4141.816z"/>
		<path id="path16775_22_" fill="#1A1A1A" fill-opacity="0.9529" d="M21484.049,4001.842
			c-102.721-227.311-230.271-149.336-356.771-84.245c87.566,13.283,179.658,20.827,243.691,48.19
			c-70.172,7.153-157.379-17.71-246.406-39.207C21217.422,4054.51,21329.826,4107.92,21484.049,4001.842z"/>
		<path id="path16785_22_" fill="#1A1A1A" fill-opacity="0.9529" d="M20799.941,4388.151
			c87.297-95.875,23.795-140.669-33.342-187.619c11.711,44.526,27.094,90.027,27.236,126.225
			c-17.879-32.012-23.99-78.752-32.084-125.667C20719.846,4271.773,20717.529,4336.422,20799.941,4388.151z"/>
		<path id="path16787_22_" fill="#1A1A1A" fill-opacity="0.9529" d="M21231.08,3716.898
			c-95.875-87.299-140.668-23.796-187.619,33.342c44.527-11.712,90.027-27.095,126.225-27.237
			c-32.012,17.879-78.752,23.991-125.668,32.083C21114.703,3796.992,21179.352,3799.309,21231.08,3716.898z"/>
		<path id="path16789_22_" fill="#1A1A1A" fill-opacity="0.9529" d="M20851.51,3299.576
			c-123.541,39.381-90.943,109.925-64.934,179.153c12.119-44.417,21.547-91.513,39.523-122.932
			c-0.523,36.662-18.6,80.197-35.049,124.873C20862.684,3440.409,20897.016,3385.58,20851.51,3299.576z"/>
		<path id="path16791_22_" fill="#1A1A1A" fill-opacity="0.9529" d="M20421.258,3335.612
			c-59.51,115.203,13.422,142.035,80.766,172.596c-22.838-39.977-49.475-79.947-58.979-114.874
			c25.555,26.294,43.555,69.86,63.514,113.082C20528.744,3427.295,20514.25,3364.249,20421.258,3335.612z"/>
		<path id="path16793_22_" fill="#1A1A1A" fill-opacity="0.9529" d="M20262.563,4216.525
			c126.68,27.665,133.721-49.727,145.811-122.684c-32.703,32.406-64.418,68.479-95.695,86.7
			c18.785-31.489,56.207-60.152,92.791-90.619C20323.301,4088.972,20266.154,4119.29,20262.563,4216.525z"/>
		<path id="path16797_22_" fill="#1A1A1A" fill-opacity="0.9529" d="M21097.984,4517.05
			c96.65-229.958-47.285-270.352-181.066-318.747c49.859,73.203,107.002,145.814,130.529,211.354
			c-52.994-46.549-94.125-127.367-138.957-207.229C20877.947,4357.529,20915.305,4476.236,21097.984,4517.05z"/>
		<path id="path16799_22_" fill="#1A1A1A" fill-opacity="0.9529" d="M20426.271,4574.13
			c237.604-75.937,174.793-211.598,124.66-344.738c-23.252,85.463-41.32,176.079-75.857,236.546
			c0.953-70.53,35.666-154.305,67.246-240.273C20404.572,4303.219,20338.607,4408.745,20426.271,4574.13z"/>
		<path id="path16801_22_" fill="#1A1A1A" fill-opacity="0.9529" d="M19907.293,3958.203
			c184.566,167.802,270.646,45.576,360.883-64.41c-85.639,22.595-173.15,52.254-242.783,52.579
			c61.557-34.439,151.465-46.265,241.705-61.9C20131.061,3803.955,20006.689,3799.591,19907.293,3958.203z"/>
		<path id="path16805_22_" fill="#1A1A1A" fill-opacity="0.9529" d="M20558.707,3023.82
			c-167.803,184.565-45.576,270.645,64.41,360.882c-22.596-85.639-52.254-173.15-52.58-242.783
			c34.439,61.557,46.266,151.465,61.9,241.706C20712.953,3247.586,20717.318,3123.215,20558.707,3023.82z"/>
		<path id="path16807_22_" fill="#1A1A1A" fill-opacity="0.9529" d="M21316.119,3297.739
			c-243.74-53.039-257.174,95.853-280.328,236.222c62.867-62.387,123.824-131.828,183.967-166.926
			c-36.09,60.604-108.039,115.799-178.373,174.46C21199.455,3543.205,21309.346,3484.799,21316.119,3297.739z"/>
	</g>
	<g id="g16809_13_" transform="matrix(0.17290942,0,0,0.17290942,-2255.2887,619.58902)">
		<path id="rect16749_24_" fill="#1A1A1A" fill-opacity="0.9529" d="M21559.445,2457.955
			c-125.467,112.811-292.406,267.153-455.91,298.071c138.059,194.825,151.025,208.951,288.596,306.534
			c-291.393-48.137-538.305-241.668-778.162-481.569l39.896-93.989C20780.965,2686.855,21163.992,2652.137,21559.445,2457.955z"/>
		
			<ellipse id="path16752_24_" transform="matrix(0.9413 -0.3375 0.3375 0.9413 318.6133 7380.6465)" fill="#1A1A1A" fill-opacity="0.9529" cx="21384.572" cy="2774.055" rx="109.286" ry="96.992"/>
		<path id="path16770_24_" fill="#1A1A1A" fill-opacity="0.9529" d="M21929.795,2902.417c-47.902-120.493-116-83.053-183.246-52.279
			c45.154,8.992,92.793,15.112,125.389,30.853c-36.609,2.036-81.299-12.96-127.014-26.253
			C21790.084,2923.389,21847.174,2953.812,21929.795,2902.417z"/>
		<path id="path16775_24_" fill="#1A1A1A" fill-opacity="0.9529" d="M22195.789,2662.789
			c-171.131-181.484-266.344-66.231-364.764,36.499c87.123-15.95,176.652-38.799,246.105-33.774
			c-64.02,29.609-154.57,34.493-245.746,43.151C21960.836,2799.392,22084.504,2813.297,22195.789,2662.789z"/>
		<path id="path16785_24_" fill="#1A1A1A" fill-opacity="0.9529" d="M21674.721,3250.775
			c51.33-119.074-23.297-140.753-92.607-166.542c25.57,38.287,54.93,76.301,66.848,110.479
			c-27.326-24.447-48.322-66.651-71.248-108.375C21561.102,3166.813,21579.959,3228.695,21674.721,3250.775z"/>
		<path id="path16787_24_" fill="#1A1A1A" fill-opacity="0.9529" d="M21863.834,2475.727
			c-119.074-51.328-140.754,23.298-166.543,92.608c38.287-25.57,76.301-54.929,110.48-66.848
			c-24.447,27.326-66.652,48.323-108.375,71.249C21779.871,2589.347,21841.754,2570.49,21863.834,2475.727z"/>
		<path id="path16789_24_" fill="#1A1A1A" fill-opacity="0.9529" d="M21369.076,2204.718
			c-103.988,77.457-50.201,133.544-3.07,190.533c-3.002-45.942-9.42-93.543-2.652-129.102c11.441,34.835,8.523,81.883,7.516,129.48
			C21425.492,2334.24,21440.102,2271.221,21369.076,2204.718z"/>
		<path id="path16791_24_" fill="#1A1A1A" fill-opacity="0.9529" d="M20973.996,2378.867
			c-18.76,128.301,58.934,129.927,132.557,136.898c-34.607-30.364-72.805-59.484-93.164-89.414
			c32.723,16.542,63.928,51.873,96.871,86.242C21105.475,2430.561,21071.246,2375.669,20973.996,2378.867z"/>
		<path id="path16793_24_" fill="#1A1A1A" fill-opacity="0.9529" d="M21110.744,3263.453
			c128.785-15.085,110.246-90.553,97.926-163.472c-20.373,41.288-38.615,85.72-62.254,113.132
			c7.508-35.889,33.559-75.174,58.23-115.891C21126.646,3123.075,21082.484,3170.346,21110.744,3263.453z"/>
		<path id="path16797_24_" fill="#1A1A1A" fill-opacity="0.9529" d="M21998.492,3275.618
			c16.52-248.896-132.727-240.229-274.975-242.432c70.975,52.982,148.646,103.033,192.229,157.343
			c-65.264-26.76-130.465-89.784-198.855-150.698C21738.508,3196.425,21812.479,3296.502,21998.492,3275.618z"/>
		<path id="path16799_24_" fill="#1A1A1A" fill-opacity="0.9529" d="M21381.959,3548.276
			c199.938-149.156,96.381-256.977,5.633-366.541c5.84,88.377,18.256,179.939,5.289,248.355
			c-22.063-66.998-16.516-157.51-14.645-249.076C21273.242,3299.189,21245.227,3420.442,21381.959,3548.276z"/>
		<path id="path16801_24_" fill="#1A1A1A" fill-opacity="0.9529" d="M20690.73,3134.868
			c229.141,98.572,270.738-45.021,320.25-178.393c-73.617,49.245-146.705,105.779-212.439,128.757
			c46.992-52.604,128.15-93.056,208.385-137.22C20852.088,2916.174,20733.07,2952.538,20690.73,3134.868z"/>
		<path id="path16805_24_" fill="#1A1A1A" fill-opacity="0.9529" d="M21002.447,2039.313
			c-98.572,229.141,45.021,270.738,178.393,320.25c-49.246-73.617-105.779-146.704-128.756-212.438
			c52.604,46.991,93.055,128.151,137.219,208.385C21221.143,2200.67,21184.777,2081.654,21002.447,2039.313z"/>
		<path id="path16807_24_" fill="#1A1A1A" fill-opacity="0.9529" d="M21807.773,2051.719
			c-247.727,29.205-211.955,174.358-188.148,314.618c39.131-79.456,74.16-164.959,119.6-217.726
			c-14.395,69.052-64.455,144.664-111.857,223.028C21777.383,2321.793,21862.271,2230.793,21807.773,2051.719z"/>
	</g>
	<g id="g16809_14_" transform="matrix(0.17290942,0,0,0.17290942,-2255.2887,619.58902)">
		<path id="rect16749_26_" fill="#1A1A1A" fill-opacity="0.9529" d="M21764.438,1178.469
			c-81.904,147.512-189.5,347.796-334.029,430.261c193.967,139.263,210.824,148.398,372.67,195.876
			c-291.188,49.353-587.656-53.247-892.551-201.988l7.123-101.857C21102.893,1648.345,21453.748,1490.818,21764.438,1178.469z"/>
		
			<ellipse id="path16752_26_" transform="matrix(0.7801 -0.6256 0.6256 0.7801 3811.4683 13914.0908)" fill="#1A1A1A" fill-opacity="0.9529" cx="21702.002" cy="1534.28" rx="109.286" ry="96.992"/>
		<path id="path16770_26_" fill="#1A1A1A" fill-opacity="0.9529" d="M22259.313,1478.142
			c-84.521-98.332-136.721-40.762-190.283,10.228c45.621-6.198,92.658-15.922,128.602-11.651
			c-33.951,13.844-81.088,14.214-128.641,16.529C22134.041,1543.456,22197.926,1553.635,22259.313,1478.142z"/>
		<path id="path16775_26_" fill="#1A1A1A" fill-opacity="0.9529" d="M22432.799,1164.969
			c-220.893-115.882-273.396,24.091-333.008,153.266c77.184-43.445,154.396-94.198,221.701-112.058
			c-50.893,48.839-134.92,82.937-218.309,120.807C22255.119,1370.623,22376.578,1343.509,22432.799,1164.969z"/>
		<path id="path16785_26_" fill="#1A1A1A" fill-opacity="0.9529" d="M22131.549,1890.564
			c9.766-129.297-67.852-125.499-141.783-127.318c36.643,27.876,76.779,54.26,99.176,82.697
			c-33.797-14.219-67.391-47.288-102.65-79.275C21996.785,1848.168,22034.762,1900.538,22131.549,1890.564z"/>
		<path id="path16787_26_" fill="#1A1A1A" fill-opacity="0.9529" d="M22058.027,1096.173
			c-129.297-9.765-125.5,67.853-127.318,141.783c27.877-36.642,54.262-76.778,82.697-99.175
			c-14.219,33.797-47.287,67.39-79.275,102.651C22015.631,1230.938,22068.002,1192.962,22058.027,1096.173z"/>
		<path id="path16789_26_" fill="#1A1A1A" fill-opacity="0.9529" d="M21501.992,1001.006
			c-73.105,107.092-3.986,142.612,59.129,181.152c-17.795-42.462-39.361-85.38-44.539-121.205
			c22.16,29.212,34.717,74.647,49.262,119.979C21597.504,1105.104,21590.801,1040.762,21501.992,1001.006z"/>
		<path id="path16791_26_" fill="#1A1A1A" fill-opacity="0.9529" d="M21185.137,1294.293
			c24.031,127.419,98.021,103.661,169.904,86.284c-42.609-17.443-88.205-32.54-117.199-54.211
			c36.324,4.987,77.332,28.235,119.67,50.006C21326.281,1300.365,21276.045,1259.608,21185.137,1294.293z"/>
		<path id="path16793_26_" fill="#1A1A1A" fill-opacity="0.9529" d="M21602.426,2086.164
			c116.857-56.192,74.76-121.512,39.369-186.447c-5.82,45.671-8.602,93.622-22.029,127.236
			c-4.586-36.378,7.256-82.005,17.328-128.536C21571.76,1948.257,21545.395,2007.33,21602.426,2086.164z"/>
		<path id="path16797_26_" fill="#1A1A1A" fill-opacity="0.9529" d="M22445.77,1808.645
			c-65.414-240.714-203.707-183.929-338.922-139.701c84.357,26.988,174.092,49.025,232.98,86.187
			c-70.42-4.054-152.586-42.418-237.084-77.747C22174.166,1818.408,22276.689,1888.951,22445.77,1808.645z"/>
		<path id="path16799_26_" fill="#1A1A1A" fill-opacity="0.9529" d="M21951.596,2267.171
			c140.482-206.123,7.465-274.354-114.01-348.405c34.295,81.661,75.844,164.192,85.857,233.103
			c-42.672-56.165-66.895-143.552-94.938-230.739C21767.707,2067.049,21780.693,2190.817,21951.596,2267.171z"/>
		<path id="path16801_26_" fill="#1A1A1A" fill-opacity="0.9529" d="M21163.432,2101.329
			c248.75,18.6,241.332-130.711,244.725-272.937c-53.574,70.53-104.273,147.778-158.945,190.905
			c27.305-65.037,90.871-129.708,152.355-197.587C21244.799,1842.016,21144.105,1915.147,21163.432,2101.329z"/>
		<path id="path16805_26_" fill="#1A1A1A" fill-opacity="0.9529" d="M21101.488,963.975
			c-18.6,248.749,130.711,241.331,272.938,244.724c-70.529-53.574-147.779-104.273-190.906-158.945
			c65.037,27.305,129.709,90.873,197.588,152.357C21360.801,1045.342,21287.67,944.649,21101.488,963.975z"/>
		<path id="path16807_26_" fill="#1A1A1A" fill-opacity="0.9529" d="M21866.979,713.517
			c-224.723,108.266-143.643,233.865-75.469,358.732c11.131-87.867,16.414-180.116,42.199-244.801
			c8.871,69.976-13.844,157.767-33.152,247.294C21926.17,978.772,21976.807,865.092,21866.979,713.517z"/>
	</g>
	<g id="g16809_15_" transform="matrix(0.17290942,0,0,0.17290942,-2255.2887,619.58902)">
		<path id="rect16749_28_" fill="#1A1A1A" fill-opacity="0.9529" d="M21541.699-98.049
			c-29.414,166.141-65.943,390.542-175.75,515.569c228.738,68.527,247.652,71.675,416.137,63.875
			c-259.256,141.466-572.975,140.976-909.684,99.602l-26.426-98.626C21069.174,561.607,21349.629,298.434,21541.699-98.049z"/>
		
			<ellipse id="path16752_28_" transform="matrix(0.534 -0.8455 0.8455 0.534 9846.918 18382.2422)" fill="#1A1A1A" fill-opacity="0.9529" cx="21598.508" cy="258.705" rx="109.286" ry="96.992"/>
		<path id="path16770_28_" fill="#1A1A1A" fill-opacity="0.9529" d="M22107.178,24.182c-111.93-65.457-142.543,5.97-176.586,71.621
			c41.117-20.714,82.426-45.221,117.803-52.886c-27.596,24.143-72.043,39.84-116.25,57.51
			C22009.996,126.723,22073.713,115.548,22107.178,24.182z"/>
		<path id="path16775_28_" fill="#1A1A1A" fill-opacity="0.9529" d="M22169.254-328.41
			c-246.584-37.653-250.658,111.788-264.967,253.332c58.834-66.206,115.318-139.332,173.141-178.132
			c-32.219,62.748-100.566,122.344-167.084,185.3C22068.209-76.113,22174.223-141.293,22169.254-328.41z"/>
		<path id="path16785_28_" fill="#1A1A1A" fill-opacity="0.9529" d="M22120.648,455.731
			c-32.863-125.432-105.016-96.571-175.51-74.222c43.721,14.428,90.26,26.308,120.695,45.904
			c-36.586-2.441-79.113-22.772-122.867-41.536C21979.422,459.519,22032.379,496.673,22120.648,455.731z"/>
		<path id="path16787_28_" fill="#1A1A1A" fill-opacity="0.9529" d="M21792.504-271.444
			c-125.434,32.862-96.572,105.015-74.223,175.509c14.428-43.721,26.309-90.26,45.904-120.695
			c-2.441,36.585-22.771,79.114-41.537,122.867C21796.291-130.219,21833.445-183.176,21792.504-271.444z"/>
		<path id="path16789_28_" fill="#1A1A1A" fill-opacity="0.9529" d="M21235.779-180.399
			c-34.258,125.059,42.658,136.141,114.883,152.032c-30.648-34.356-65.014-67.914-81.572-100.101
			c30.463,20.406,57.129,59.277,85.639,97.405C21359.977-113.068,21332.691-171.722,21235.779-180.399z"/>
		<path id="path16791_28_" fill="#1A1A1A" fill-opacity="0.9529" d="M21031.67,200.067c64.205,112.653,126.43,66.101,188.738,26.267
			c-45.967-2.62-93.994-2.05-128.463-13.101c35.969-7.111,82.311,1.52,129.432,8.32
			C21167.102,159.856,21106.332,137.675,21031.67,200.067z"/>
		<path id="path16793_28_" fill="#1A1A1A" fill-opacity="0.9529" d="M21684.033,812.94c92.195-91.175,31.125-139.231-23.477-189.106
			c9.365,45.078,22.346,91.322,20.594,127.477c-16.18-32.904-19.836-79.9-25.463-127.174
			C21610.139,692.53,21604.441,756.969,21684.033,812.94z"/>
		<path id="path16797_28_" fill="#1A1A1A" fill-opacity="0.9529" d="M22391.078,275.974
			c-140.219-206.302-252.49-107.588-365.939-21.747c88.549-1.947,180.568-10.324,248.348,5.64
			c-67.902,19.093-158.084,9.571-249.479,3.675C22137.451,373.631,22257.355,406.953,22391.078,275.974z"/>
		<path id="path16799_28_" fill="#1A1A1A" fill-opacity="0.9529" d="M22073.107,870.407
			c65.723-240.63-82.262-261.838-221.227-292.306c59.012,66.047,125.168,130.555,157.07,192.452
			c-58.633-39.213-109.986-113.952-164.887-187.259C21834.086,741.056,21886.66,853.853,22073.107,870.407z"/>
		<path id="path16801_28_" fill="#1A1A1A" fill-opacity="0.9529" d="M21273.893,970.201
			c241.252-63.398,185.627-202.16,142.531-337.741c-27.693,84.129-50.48,173.675-88.133,232.252
			c4.643-70.383,43.693-152.227,79.729-236.425C21266.402,698.526,21195.004,800.455,21273.893,970.201z"/>
		<path id="path16805_28_" fill="#1A1A1A" fill-opacity="0.9529" d="M20845.037-85.021
			c63.398,241.252,202.16,185.627,337.742,142.531c-84.129-27.693-173.676-50.48-232.252-88.133
			c70.383,4.643,152.227,43.693,236.426,79.728C21116.713-92.512,21014.785-163.91,20845.037-85.021z"/>
		<path id="path16807_28_" fill="#1A1A1A" fill-opacity="0.9529" d="M21487.281-571.053
			c-177.23,175.53-59.678,267.889,45.436,363.758c-18.082-86.704-43.121-175.647-39.801-245.203
			c31.172,63.275,38.275,153.678,49.166,244.614C21629.607-339.521,21640.475-463.493,21487.281-571.053z"/>
	</g>
	<g id="g16809_16_" transform="matrix(0.17290942,0,0,0.17290942,-2255.2887,619.58902)">
		<path id="rect16749_30_" fill="#1A1A1A" fill-opacity="0.9529" d="M20915.506-1232.503
			c26.277,166.666,64.797,390.734,1.676,544.699c238.588-9.677,257.496-12.858,414.262-75.086
			c-199.074,218.164-495.861,319.838-827.695,390.34l-57.098-84.649C20683.486-454.948,20862.98-795.089,20915.506-1232.503z"/>
		
			<ellipse id="path16752_30_" transform="matrix(0.2296 -0.9733 0.9733 0.2296 17133.3496 19818.1543)" fill="#1A1A1A" fill-opacity="0.9529" cx="21085.365" cy="-913.682" rx="109.286" ry="96.992"/>
		<path id="path16770_30_" fill="#1A1A1A" fill-opacity="0.9529" d="M21489.971-1301.033
			c-127.145-25.45-132.834,52.053-143.648,125.21c32.133-32.972,63.213-69.593,94.166-88.357
			c-18.23,31.812-55.148,61.124-91.193,92.224C21431.467-1172.44,21488.074-1203.75,21489.971-1301.033z"/>
		<path id="path16775_30_" fill="#1A1A1A" fill-opacity="0.9529" d="M21433.871-1654.626
			c-245.41,44.679-200.607,187.304-168.055,325.795c34.074-81.753,63.672-169.284,105.715-224.796
			c-10.037,69.819-55.258,148.421-97.654,229.602C21420.471-1383.178,21499.488-1479.321,21433.871-1654.626z"/>
		<path id="path16785_30_" fill="#1A1A1A" fill-opacity="0.9529" d="M21643.203-897.381c-71.908-107.9-130.732-57.12-190.111-13.038
			c46.037-0.592,93.908-4.511,129.064,4.108c-35.387,9.603-82.217,4.226-129.695,0.729
			C21510.906-847.821,21573.074-829.932,21643.203-897.381z"/>
		<path id="path16787_30_" fill="#1A1A1A" fill-opacity="0.9529" d="M21096.191-1478.105
			c-107.9,71.908-57.119,130.734-13.037,190.112c-0.592-46.036-4.512-93.908,4.107-129.064c9.604,35.386,4.227,82.217,0.729,129.696
			C21145.752-1345.808,21163.641-1407.976,21096.191-1478.105z"/>
		<path id="path16789_30_" fill="#1A1A1A" fill-opacity="0.9529" d="M20599.439-1210.769
			c8.324,129.398,84.658,114.835,158.123,106.347c-40.166-22.505-83.582-43.047-109.719-68.09
			c35.447,9.377,73.314,37.449,112.684,64.217C20738.793-1187.541,20693.898-1234.117,20599.439-1210.769z"/>
		<path id="path16791_30_" fill="#1A1A1A" fill-opacity="0.9529" d="M20530.318-784.579
			c97.385,85.612,141.063,21.338,187.008-36.611c-44.314,12.487-89.541,28.663-125.729,29.436
			c31.693-18.434,78.32-25.361,125.088-34.272C20645.281-866.692,20580.602-867.881,20530.318-784.579z"/>
		<path id="path16793_30_" fill="#1A1A1A" fill-opacity="0.9529" d="M21346.672-417.485c57.49-116.224-15.898-141.779-83.764-171.16
			c23.531,39.573,50.859,79.071,60.973,113.827c-26.008-25.844-44.768-69.089-65.479-111.956
			C21237.604-507.278,21253.195-444.495,21346.672-417.485z"/>
		<path id="path16797_30_" fill="#1A1A1A" fill-opacity="0.9529" d="M21840.377-1155.388
			c-199.744-149.412-273.76-19.524-353.082,98.576c83.09-30.669,167.369-68.549,236.654-75.521
			c-57.988,40.16-146.355,60.516-234.691,84.698C21632.363-980.478,21756.582-988.009,21840.377-1155.388z"/>
		<path id="path16799_30_" fill="#1A1A1A" fill-opacity="0.9529" d="M21733.26-489.82
			c-16.199-248.917-163.025-220.791-304.34-204.357c77.299,43.237,160.852,82.692,211.168,130.83
			c-68.203-17.988-141.092-71.936-216.867-123.375C21465.146-534.305,21551.58-444.77,21733.26-489.82z"/>
		<path id="path16801_30_" fill="#1A1A1A" fill-opacity="0.9529" d="M21010.076-135.264
			c207.469-138.488,109.697-251.58,24.809-365.744c1.205,88.562,8.813,180.648-7.719,248.292
			c-18.523-68.06-8.246-158.158-1.588-249.501C20914.545-389.699,20880.221-270.079,21010.076-135.264z"/>
		<path id="path16805_30_" fill="#1A1A1A" fill-opacity="0.9529" d="M20261.039-993.374
			c138.488,207.468,251.58,109.697,365.744,24.808c-88.561,1.206-180.646,8.813-248.291-7.718
			c68.061-18.524,158.158-8.248,249.5-1.588C20515.475-1088.906,20395.854-1123.229,20261.039-993.374z"/>
		<path id="path16807_30_" fill="#1A1A1A" fill-opacity="0.9529" d="M20710.057-1662.021
			c-110.428,223.668,30.789,272.724,161.387,329.148c-45.324-76.094-97.955-152.039-117.461-218.886
			c50.072,49.68,86.221,132.845,126.125,215.28C20920.008-1489.439,20889.922-1610.196,20710.057-1662.021z"/>
	</g>
	<g id="g16809_17_" transform="matrix(0.17290942,0,0,0.17290942,-2255.2887,619.58902)">
		<path id="rect16749_32_" fill="#1A1A1A" fill-opacity="0.9529" d="M19954.084-2101.282
			c79.107,149.03,188.479,348.35,178.922,514.477c222.438-86.826,239.281-95.99,367.246-205.866
			c-117.201,271.091-364.717,463.849-655.52,638.545l-81.545-61.449C19987.854-1290.551,20046.828-1670.598,19954.084-2101.282z"/>
		
			<ellipse id="path16752_32_" transform="matrix(0.995 -0.0998 0.0998 0.995 285.9866 2008.0483)" fill="#1A1A1A" fill-opacity="0.9529" cx="20218.488" cy="-1855.131" rx="96.992" ry="109.286"/>
		<path id="path16770_32_" fill="#1A1A1A" fill-opacity="0.9529" d="M20474.939-2353.106
			c-128.502,17.331-108.648,92.463-95.057,165.156c19.648-41.637,37.111-86.381,60.27-114.201
			c-6.881,36.015-32.244,75.749-56.199,116.889C20461.488-2212.472,20504.82-2260.506,20474.939-2353.106z"/>
		<path id="path16775_32_" fill="#1A1A1A" fill-opacity="0.9529" d="M20306.779-2669.17
			c-217.494,122.142-128.699,242.411-52.83,362.758c5.602-88.393,5.09-180.791,26.768-246.965
			c13.242,69.282-3.926,158.324-17.582,248.886C20382.484-2408.148,20425.895-2524.779,20306.779-2669.17z"/>
		<path id="path16785_32_" fill="#1A1A1A" fill-opacity="0.9529" d="M20751.242-2021.334c-103.119-78.61-142.209-11.446-184,49.567
			c43.336-15.548,87.324-34.839,123.371-38.135c-30.332,20.6-76.361,30.763-122.393,42.914
			C20642.287-1931.401,20706.893-1934.727,20751.242-2021.334z"/>
		<path id="path16787_32_" fill="#1A1A1A" fill-opacity="0.9529" d="M20044.967-2392.329
			c-78.611,103.119-11.445,142.208,49.566,183.999c-15.549-43.335-34.838-87.323-38.135-123.37
			c20.6,30.332,30.764,76.362,42.914,122.393C20134.898-2283.375,20131.572-2347.979,20044.967-2392.329z"/>
		<path id="path16789_32_" fill="#1A1A1A" fill-opacity="0.9529" d="M19662.314-1977.831
			c49.998,119.638,117.432,81.016,184.131,49.073c-45.305-8.203-93.043-13.49-125.91-28.659
			c36.57-2.675,81.514,11.539,127.453,24.032C19801.637-2001.238,19744.025-2030.659,19662.314-1977.831z"/>
		<path id="path16791_32_" fill="#1A1A1A" fill-opacity="0.9529" d="M19735.713-1552.357c119.951,49.242,140.324-25.75,164.9-95.5
			c-37.836,26.234-75.332,56.253-109.297,68.766c23.967-27.749,65.797-49.479,107.115-73.129
			C19817.678-1667.424,19756.135-1647.491,19735.713-1552.357z"/>
		<path id="path16793_32_" fill="#1A1A1A" fill-opacity="0.9529" d="M20627.104-1471.042
			c16.52-128.609-61.191-128.878-134.924-134.564c35.133,29.756,73.832,58.204,94.709,87.774
			c-33.006-15.968-64.822-50.75-98.359-84.539C20494.744-1520.433,20529.926-1466.147,20627.104-1471.042z"/>
		<path id="path16797_32_" fill="#1A1A1A" fill-opacity="0.9529" d="M20853.674-2329.477
			c-237.506-76.241-265.201,70.667-301.752,208.157c68.578-56.05,135.934-119.304,199.172-148.454
			c-41.752,56.851-118.678,104.868-194.328,156.491C20713.938-2096.374,20828.938-2143.936,20853.674-2329.477z"/>
		<path id="path16799_32_" fill="#1A1A1A" fill-opacity="0.9529" d="M20969.08-1665.296
			c-96.357-230.081-226.027-155.686-354.291-94.14c87.164,15.715,179.01,25.818,242.258,54.952
			c-70.346,5.198-156.826-22.082-245.221-46.048C20701.092-1620.068,20811.965-1563.551,20969.08-1665.296z"/>
		<path id="path16801_32_" fill="#1A1A1A" fill-opacity="0.9529" d="M20400.729-1094.611
			c151.078-198.488,21.814-273.588-95.617-353.895c29.973,83.344,67.146,167.937,73.539,237.277
			c-39.674-58.321-59.291-146.856-82.732-235.391C20227.566-1304.083,20234.057-1179.804,20400.729-1094.611z"/>
		<path id="path16805_32_" fill="#1A1A1A" fill-opacity="0.9529" d="M19413.127-1662.108
			c198.488,151.078,273.588,21.814,353.895-95.618c-83.344,29.973-167.936,67.146-237.277,73.539
			c58.322-39.673,146.857-59.29,235.393-82.731C19622.598-1835.271,19498.32-1828.78,19413.127-1662.108z"/>
		<path id="path16807_32_" fill="#1A1A1A" fill-opacity="0.9529" d="M19619.992-2440.511
			c-31.594,247.435,117.9,247.841,259.754,258.673c-67.629-57.191-142.119-111.864-182.324-168.719
			c63.518,30.671,124.773,97.536,189.342,162.489C19874.691-2345.686,19806.93-2450.068,19619.992-2440.511z"/>
	</g>
	<g id="g16809_18_" transform="matrix(0.17290942,0,0,0.17290942,-2255.2887,619.58902)">
		<path id="rect16749_34_" fill="#1A1A1A" fill-opacity="0.9529" d="M18762.195-2609.72
			c123.316,115.156,291.621,268.009,336.672,428.196c182.051-154.514,194.994-168.662,280.215-314.213
			c-22.559,294.478-193.834,557.319-411.916,817.172l-97.107-31.552C19058.072-1854.153,18990.105-2232.696,18762.195-2609.72z"/>
		
			<ellipse id="path16752_34_" transform="matrix(0.9083 -0.4183 0.4183 0.9083 2780.7036 7760.1763)" fill="#1A1A1A" fill-opacity="0.9529" cx="19092.334" cy="-2463.062" rx="96.992" ry="109.286"/>
		<path id="path16770_34_" fill="#1A1A1A" fill-opacity="0.9529" d="M19172.689-3017.399
			c-115.859,58.223-72.629,122.798-36.109,187.106c5.021-45.766,6.967-93.758,19.805-127.601
			c5.221,36.293-5.824,82.119-15.082,128.818C19205.756-2880.047,19231.088-2939.572,19172.689-3017.399z"/>
		<path id="path16775_34_" fill="#1A1A1A" fill-opacity="0.9529" d="M18910.789-3261.496
			c-165.879,186.297-42.766,271.104,68.15,360.194c-23.482-85.4-54.047-172.598-55.094-242.225
			c35.076,61.197,47.832,150.977,64.404,241.051C19067.35-3039.342,19070.424-3163.751,18910.789-3261.496z"/>
		<path id="path16785_34_" fill="#1A1A1A" fill-opacity="0.9529" d="M19541.951-2793.657
			c-123.094-40.755-138.186,35.476-157.836,106.771c35.912-28.81,71.223-61.37,104.232-76.223
			c-21.973,29.353-62.186,53.948-101.754,80.423C19468.213-2673.152,19528.215-2697.33,19541.951-2793.657z"/>
		<path id="path16787_34_" fill="#1A1A1A" fill-opacity="0.9529" d="M18753.371-2914.499
			c-40.756,123.094,35.477,138.187,106.77,157.837c-28.809-35.913-61.369-71.223-76.223-104.233
			c29.354,21.973,53.949,62.186,80.424,101.753C18873.875-2840.76,18849.697-2900.762,18753.371-2914.499z"/>
		<path id="path16789_34_" fill="#1A1A1A" fill-opacity="0.9529" d="M18526.514-2398.004c86.225,96.842,137.41,38.37,190.076-13.548
			c-45.506,6.994-92.367,17.537-128.381,13.894c33.705-14.434,80.83-15.627,128.334-18.772
			C18650.625-2465.495,18586.574-2474.557,18526.514-2398.004z"/>
		<path id="path16791_34_" fill="#1A1A1A" fill-opacity="0.9529" d="M18734.434-2019.607
			c129.449,7.507,124.297-70.033,124.824-143.984c-27.232,37.123-52.912,77.713-80.953,100.603
			c13.627-34.04,46.104-68.205,77.471-104.019C18774.473-2155.091,18722.771-2116.207,18734.434-2019.607z"/>
		<path id="path16793_34_" fill="#1A1A1A" fill-opacity="0.9529" d="M19603.734-2232.93
			c-26.252-126.98-99.816-101.935-171.383-83.305c42.906,16.696,88.758,30.996,118.127,52.157
			c-36.408-4.352-77.814-26.881-120.525-47.91C19462.506-2236.538,19513.445-2196.664,19603.734-2232.93z"/>
		<path id="path16797_34_" fill="#1A1A1A" fill-opacity="0.9529" d="M19538.482-3118.361
			c-249.389,5.237-227.748,153.158-217.545,295.058c46.596-75.323,89.688-157.06,139.99-205.21
			c-20.969,67.347-78.07,137.793-132.793,211.232C19482.248-2852.464,19575.498-2934.875,19538.482-3118.361z"/>
		<path id="path16799_34_" fill="#1A1A1A" fill-opacity="0.9529" d="M19863.836-2527.938
			c-166.014-186.176-264.398-73.616-365.637,26.335c87.531-13.519,177.662-33.869,246.949-26.913
			c-64.82,27.816-155.471,30.179-246.852,36.296C19625.172-2397.926,19748.406-2380.584,19863.836-2527.938z"/>
		<path id="path16801_34_" fill="#1A1A1A" fill-opacity="0.9529" d="M19512.246-1803.308
			c78.227-236.86-68.445-265.784-205.625-303.484c55.475,69.045,118.162,136.927,146.781,200.408
			c-56.498-42.227-103.871-119.552-154.859-195.632C19280.32-1944.99,19326.92-1829.597,19512.246-1803.308z"/>
		<path id="path16805_34_" fill="#1A1A1A" fill-opacity="0.9529" d="M18393.691-2018.355
			c236.861,78.226,265.785-68.445,303.484-205.625c-69.045,55.474-136.926,118.163-200.408,146.782
			c42.229-56.5,119.553-103.871,195.633-154.859C18535.375-2250.281,18419.98-2203.682,18393.691-2018.355z"/>
		<path id="path16807_34_" fill="#1A1A1A" fill-opacity="0.9529" d="M18335.863-2821.698
			c50.684,244.24,192.168,195.953,329.818,160.012c-82.564-32.058-170.795-59.5-227.322-100.168
			c70.045,8.32,149.732,51.6,231.93,91.993C18607.557-2814.96,18509.506-2891.595,18335.863-2821.698z"/>
	</g>
</g>
</svg>
